<svg width="1920" height="1281" viewBox="0 0 1920 1281" fill="none" xmlns="http://www.w3.org/2000/svg">
<g opacity="0.4">
<g opacity="0.1">
<mask id="mask0_239_1062" style="mask-type:luminance" maskUnits="userSpaceOnUse" x="-5" y="90" width="1940" height="1191">
<path d="M1934.15 90.0935H-5V1281H1934.15V90.0935Z" fill="white"/>
</mask>
<g mask="url(#mask0_239_1062)">
<path d="M-1233.45 1518.59C-1211.31 1404.71 -1086.24 1336.82 -965.525 1323.57C-844.813 1310.18 -721.839 1336.23 -599.834 1336.23C-272.926 1336.08 35.2369 1128.86 142.213 837.238C176.472 743.752 191.5 644.163 224.95 550.379C258.401 456.595 315.121 365.342 407.23 320.683C539.739 256.523 705.698 305.945 839.337 377.697C972.977 449.449 1098.21 544.424 1246.4 577.323C1441.12 620.493 1643.28 546.211 1792.27 426.376C1941.1 306.541 2046.3 145.471 2149.07 -12.9199" stroke="#D4E8F7" stroke-miterlimit="10"/>
<path d="M-1240.72 1507.57C-1216.48 1394.28 -1091.73 1326.55 -970.858 1312.86C-918.662 1306.9 -865.821 1308.39 -812.979 1312.41C-743.654 1317.62 -674.168 1326.85 -605.167 1328.19C-464.417 1331.02 -327.222 1297.82 -206.672 1233.36C-113.593 1183.64 -30.6938 1117.99 35.3988 1039.25C82.7464 983.273 120.398 920.155 146.738 851.678C158.535 821.012 168.23 789.602 177.118 757.894C195.217 693.436 210.084 627.937 233.515 565.563C260.178 494.853 300.416 426.376 360.206 379.781C378.79 365.193 398.989 352.688 421.128 342.863C514.045 301.777 621.506 315.919 724.281 350.902C768.72 366.086 812.351 384.992 852.912 405.386C898.32 428.162 942.759 452.724 987.036 476.096C1073.97 522.244 1159.78 564.67 1252.7 580.151C1313.14 590.125 1372.77 587.595 1431.75 575.388C1551.65 550.676 1669.45 484.73 1767.71 400.622C1794.69 377.548 1820.39 353.284 1845.27 327.977C1955.8 215.585 2048.24 85.6275 2139.38 -36.887" stroke="#D4E8F7" stroke-miterlimit="10"/>
<path d="M-1248 1496.4C-1221.49 1383.72 -1097.23 1315.98 -976.191 1301.84C-923.834 1295.74 -870.992 1297.23 -817.989 1301.39C-748.664 1306.9 -679.178 1317.02 -610.338 1319.85C-469.912 1325.66 -332.879 1297.82 -211.197 1236.04C-117.148 1188.41 -32.9569 1125.88 35.7213 1050.11C84.8464 995.927 123.953 933.85 151.424 865.82C163.705 835.452 173.724 804.042 183.097 772.334C202.003 708.025 217.678 642.376 242.079 580.598C269.873 510.334 311.565 443.495 373.295 399.134C392.363 385.438 412.724 373.678 435.024 364.746C528.427 327.381 634.434 344.947 737.047 380.079C781.647 395.263 825.601 413.573 866.647 432.628C912.54 453.915 957.464 476.245 1001.58 496.788C1088.19 537.576 1171.74 573.452 1259.32 582.384C1316.04 588.19 1370.18 581.491 1424.64 566.009C1535.01 534.301 1646.99 462.4 1743.63 374.422C1770.13 350.306 1795.82 325 1820.87 299.097C1932.53 183.282 2031.91 54.515 2130 -61.4495" stroke="#D4E8F7" stroke-miterlimit="10"/>
<path d="M-1255.27 1485.24C-1226.5 1373.15 -1102.72 1305.41 -981.524 1290.97C-929.167 1284.72 -876.002 1286.06 -822.999 1290.53C-753.513 1296.48 -684.35 1307.5 -615.51 1311.67C-475.245 1320.45 -338.697 1297.97 -215.722 1238.87C-120.704 1193.32 -35.0584 1133.92 36.0437 1061.13C87.108 1008.73 127.507 947.695 156.109 879.962C168.875 849.743 179.379 818.63 189.236 786.774C208.951 722.614 225.434 656.816 250.804 595.484C279.73 525.667 322.714 460.465 386.545 418.337C406.098 405.535 426.621 394.519 448.921 386.629C542.646 352.986 647.36 374.125 749.812 409.256C794.574 424.589 838.69 442.155 880.22 459.87C926.598 479.669 971.845 499.765 1015.96 517.629C1102.25 552.761 1183.7 582.384 1265.79 584.766C1318.95 586.255 1367.59 575.686 1417.2 556.78C1518.04 518.373 1624.21 440.071 1719.06 348.371C1745.08 323.064 1770.61 297.013 1795.82 270.367C1908.45 151.127 2014.78 23.5515 2120.14 -85.7141" stroke="#D4E8F7" stroke-miterlimit="10"/>
<path d="M-1262.54 1474.08C-1231.51 1362.73 -1108.22 1294.84 -986.695 1280.11C-934.177 1273.71 -881.012 1274.9 -827.847 1279.81C-758.36 1286.06 -689.197 1297.97 -620.519 1303.63C-480.577 1315.24 -344.191 1298.27 -220.247 1242C-124.097 1198.53 -36.9971 1142.41 36.2058 1072.44C89.3708 1021.83 130.901 961.837 160.473 894.551C173.724 864.629 184.712 833.517 194.893 801.66C215.415 737.5 232.706 671.851 259.208 610.817C289.265 541.596 333.542 477.733 399.473 438.136C419.511 426.078 440.195 416.104 462.657 408.959C556.867 379.037 659.965 403.748 762.579 438.88C807.341 454.362 851.941 471.183 893.794 487.707C940.657 506.166 986.389 523.881 1030.18 539.065C1116.15 568.838 1195.49 591.763 1271.93 587.743C1321.54 585.064 1364.68 570.326 1409.61 547.997C1501.07 502.743 1601.1 418.337 1694.5 322.916C1720.19 296.567 1745.57 269.474 1770.94 242.083C1884.54 119.568 1997.82 -7.11427 2110.29 -109.532" stroke="#D4E8F7" stroke-miterlimit="10"/>
<path d="M-1269.81 1462.91C-1236.52 1352.16 -1113.71 1284.27 -992.027 1269.24C-939.509 1262.69 -886.182 1263.88 -832.856 1268.94C-763.37 1275.49 -694.207 1288.29 -625.69 1295.44C-486.071 1310.03 -350.008 1298.27 -224.771 1244.83C-127.652 1203.44 -39.0976 1150.6 36.5291 1083.61C91.6333 1034.78 134.456 975.681 165.159 908.842C178.895 879.069 190.368 848.105 200.872 816.397C222.203 752.386 240.301 686.589 267.773 626.15C298.961 557.375 344.531 495.15 412.563 457.786C432.924 446.621 453.931 437.391 476.393 431.139C570.926 405.088 672.732 433.074 775.183 468.504C820.107 483.986 865.031 500.212 907.369 515.396C954.716 532.366 1000.77 547.848 1044.56 560.204C1130.21 584.468 1207.77 600.992 1278.39 590.423C1324.61 583.575 1361.94 564.67 1402.34 539.065C1484.43 486.814 1578.48 396.454 1670.26 297.162C1695.47 269.771 1720.84 241.785 1746.37 213.65C1860.94 87.7116 1981.33 -37.7802 2100.91 -133.499" stroke="#D4E8F7" stroke-miterlimit="10"/>
<path d="M-1277.24 1451.89C-1241.69 1341.74 -1119.36 1274 -997.521 1258.52C-944.841 1251.82 -891.353 1252.86 -838.026 1258.22C-768.378 1265.22 -699.538 1278.92 -631.022 1287.4C-491.565 1304.82 -355.824 1298.57 -229.456 1247.8C-131.368 1208.65 -41.1974 1158.93 36.6917 1094.77C93.8966 1047.73 137.851 989.674 169.685 923.281C183.744 893.658 195.702 862.843 206.852 831.135C228.991 767.273 248.059 701.326 276.338 641.334C308.657 573.155 355.52 512.27 425.653 477.287C446.499 466.866 467.668 458.53 490.291 453.171C585.148 430.842 685.499 462.401 787.95 497.83C833.035 513.461 878.282 528.942 920.944 542.787C968.776 558.268 1015.15 571.517 1058.95 581.194C1144.27 600.099 1220.22 609.775 1284.86 592.954C1327.84 581.789 1359.35 558.864 1394.9 529.836C1467.46 470.737 1555.69 374.125 1645.86 271.111C1670.59 242.529 1695.96 213.65 1721.65 184.919C1837.35 55.5572 1964.53 -68.7437 2091.22 -157.913" stroke="#D4E8F7" stroke-miterlimit="10"/>
<path d="M-1284.51 1440.73C-1246.7 1331.32 -1124.86 1263.43 -1002.85 1247.51C-950.173 1240.66 -896.523 1241.7 -843.035 1247.36C-773.387 1254.65 -704.548 1269.24 -636.193 1279.21C-497.059 1299.61 -361.48 1298.71 -233.981 1250.63C-134.923 1213.56 -43.1363 1167.12 37.0152 1105.79C96.1592 1060.53 141.406 1003.52 174.372 937.572C188.915 908.246 201.358 877.431 212.831 845.723C235.778 781.861 255.654 715.915 284.903 656.369C318.353 588.637 366.509 529.24 438.742 496.788C459.911 487.261 481.403 479.669 504.027 475.203C599.368 456.595 698.265 491.726 800.555 527.156C845.64 542.787 891.372 557.673 934.356 570.177C982.512 584.171 1029.54 595.187 1073.17 602.034C1158.17 615.432 1232.5 618.26 1291 595.335C1330.91 579.705 1356.28 552.909 1387.31 520.606C1450.49 454.511 1532.75 351.944 1621.3 245.06C1645.7 215.436 1670.75 185.663 1696.76 156.189C1813.44 23.4025 1947.72 -99.8563 2081.52 -182.178" stroke="#D4E8F7" stroke-miterlimit="10"/>
<path d="M-1291.79 1429.57C-1251.71 1320.75 -1130.35 1252.86 -1008.03 1236.64C-955.183 1229.64 -901.372 1230.54 -847.884 1236.49C-778.236 1244.23 -709.396 1259.71 -641.364 1271.03C-502.554 1294.4 -367.298 1298.86 -238.506 1253.61C-138.478 1218.63 -45.2378 1175.46 37.3376 1116.95C98.5824 1073.48 144.96 1017.51 179.057 951.863C194.086 922.686 207.013 892.02 218.971 860.312C242.726 796.599 263.41 730.503 293.628 671.405C328.21 604.118 377.497 546.211 451.992 516.14C473.646 507.357 495.3 500.658 518.085 497.235C613.75 482.348 711.192 520.904 813.482 556.482C858.729 572.262 904.784 586.404 948.253 597.717C996.893 610.371 1044.24 619.005 1087.87 623.173C1172.55 631.211 1245.59 626.894 1297.78 598.015C1334.63 577.77 1354.02 547.253 1380.2 511.674C1433.85 438.582 1510.28 330.061 1597.06 219.307C1620.98 188.641 1646.02 157.826 1672.2 127.756C1789.84 -8.4541 1931.08 -130.522 2071.99 -206.145" stroke="#D4E8F7" stroke-miterlimit="10"/>
<path d="M-1299.06 1418.4C-1256.72 1310.18 -1135.85 1242.3 -1013.36 1225.77C-960.516 1218.63 -906.543 1219.37 -852.893 1225.62C-783.245 1233.66 -714.567 1250.04 -646.535 1262.99C-507.886 1289.19 -372.954 1299.16 -243.031 1256.59C-142.033 1223.69 -47.1767 1183.79 37.6611 1128.27C101.007 1086.73 148.516 1031.65 183.744 966.452C199.257 937.572 212.508 906.907 224.951 875.199C249.675 811.634 271.005 745.39 302.193 686.887C337.906 620.196 388.485 563.628 465.082 536.088C487.059 528.198 509.036 522.393 531.821 519.713C627.809 508.548 723.958 550.677 826.086 586.255C871.495 602.034 917.711 615.581 961.665 625.555C1010.79 636.72 1058.46 643.121 1101.93 644.461C1186.28 646.991 1257.71 635.231 1303.93 600.844C1337.54 575.834 1350.95 541.745 1372.6 502.743C1416.88 422.654 1487.17 308.029 1572.5 193.554C1596.09 161.846 1620.98 130.138 1647.32 99.1742C1765.93 -40.4596 1914.27 -161.337 2062.29 -230.409" stroke="#D4E8F7" stroke-miterlimit="10"/>
<path d="M-1306.33 1407.24C-1261.89 1299.61 -1141.34 1231.87 -1018.69 1214.9C-965.686 1207.61 -911.713 1208.35 -858.064 1214.76C-788.254 1223.24 -719.738 1240.36 -651.867 1254.8C-513.541 1283.98 -378.932 1299.16 -247.716 1259.41C-145.588 1228.6 -49.1152 1192.13 37.8232 1139.28C103.27 1099.54 151.91 1045.5 188.269 980.594C204.267 951.863 218.002 921.346 230.768 889.638C256.301 826.074 278.439 759.829 310.597 701.773C347.441 635.529 399.151 580.3 478.01 555.291C500.472 548.146 522.61 543.233 545.557 541.447C642.03 534.153 736.563 579.556 838.692 615.432C884.1 631.36 930.801 644.163 975.078 652.797C1024.69 662.473 1072.68 666.79 1116.15 665.301C1200.02 662.473 1269.99 642.823 1310.07 603.225C1340.61 573.155 1348.04 535.79 1364.85 493.513C1399.59 406.428 1464.07 285.849 1547.77 167.502C1570.88 134.604 1595.61 102.151 1622.27 70.4434C1742.01 -72.6142 1897.14 -192.3 2052.44 -254.674" stroke="#D4E8F7" stroke-miterlimit="10"/>
<path d="M-1313.6 1396.22C-1266.9 1289.34 -1146.83 1221.45 -1024.02 1204.19C-971.019 1196.74 -916.723 1197.34 -863.073 1204.19C-793.263 1212.97 -724.747 1231.13 -657.038 1246.91C-518.874 1279.06 -384.588 1299.61 -252.241 1262.54C-149.143 1233.96 -51.0542 1200.61 38.1466 1150.6C105.532 1112.78 155.465 1059.64 192.955 995.182C209.438 966.749 223.658 936.232 236.909 904.525C263.249 841.109 286.196 774.865 319.485 717.106C357.46 651.457 410.301 597.568 491.584 574.941C514.369 568.54 536.831 564.521 559.939 563.628C656.735 560.055 749.976 609.031 851.943 644.907C897.513 660.984 944.537 673.042 989.299 680.485C1039.39 688.673 1087.87 690.757 1131.18 686.589C1214.73 678.401 1282.76 650.861 1317.18 606.203C1344.16 571.071 1345.94 530.431 1358.22 484.73C1383.43 390.648 1442.09 264.115 1524.18 142.047C1546.8 108.106 1571.53 74.6116 1598.19 42.3083C1718.9 -104.024 1880.98 -222.817 2043.39 -278.343" stroke="#D4E8F7" stroke-miterlimit="10"/>
<path d="M-1320.87 1385.06C-1271.91 1278.77 -1152.33 1210.89 -1029.19 1193.17C-976.029 1185.58 -921.733 1186.02 -867.921 1193.17C-798.112 1202.25 -729.757 1221.31 -662.048 1238.57C-524.207 1273.56 -390.083 1299.61 -256.766 1265.37C-152.699 1238.87 -52.9941 1208.95 38.3075 1161.61C107.794 1125.59 158.858 1073.48 197.479 1009.47C214.447 981.189 229.152 950.821 242.726 919.113C269.874 855.846 293.629 789.453 327.887 732.29C366.832 667.087 420.966 614.539 504.511 594.591C527.781 589.083 550.404 585.808 573.512 585.808C670.631 585.957 762.418 638.506 864.385 674.382C910.116 690.459 957.464 701.921 1002.55 708.025C1053.13 714.872 1101.93 714.575 1145.24 707.578C1228.46 694.032 1294.39 658.453 1323.32 608.733C1346.75 568.391 1342.87 524.625 1350.46 475.649C1366.14 374.571 1418.98 241.934 1499.46 116.144C1521.76 81.1615 1546.32 46.7741 1573.14 13.7264C1694.83 -136.03 1864.02 -253.632 2033.53 -302.459" stroke="#D4E8F7" stroke-miterlimit="10"/>
<path d="M-1328.31 1373.89C-1277.08 1268.2 -1158.15 1200.32 -1034.69 1182.3C-981.523 1174.56 -926.904 1175.01 -873.092 1182.3C-803.121 1191.83 -734.928 1211.63 -667.381 1230.39C-529.863 1268.35 -396.062 1299.76 -261.453 1268.2C-156.415 1243.78 -55.0949 1217.14 38.469 1172.78C110.056 1138.69 162.251 1087.48 202.004 1023.76C219.456 995.629 234.485 965.41 248.705 933.702C276.661 870.435 301.224 804.042 336.451 747.325C376.527 682.718 431.793 631.36 517.6 613.943C541.193 609.18 564.14 606.947 587.41 607.84C685.014 611.71 775.346 667.683 877.312 703.708C923.044 719.934 970.876 730.652 1016.28 735.416C1067.35 740.775 1116.47 738.393 1159.78 728.568C1242.52 709.662 1306.19 666.194 1329.94 611.264C1349.5 565.86 1340.28 518.82 1343.35 466.42C1349.5 358.345 1396.36 219.753 1475.22 90.0933C1497.03 53.9195 1521.59 18.6389 1548.58 -15.0042C1671.39 -168.185 1847.37 -284.596 2024 -326.873" stroke="#D4E8F7" stroke-miterlimit="10"/>
<path d="M-1335.58 1362.73C-1282.09 1257.78 -1163.64 1189.75 -1040.02 1171.44C-986.695 1163.55 -932.076 1163.84 -878.103 1171.59C-808.132 1181.41 -740.1 1202.25 -672.714 1222.35C-535.358 1263.29 -401.88 1300.05 -266.14 1271.17C-160.133 1248.85 -57.0348 1225.62 38.6298 1183.94C112.317 1151.79 165.644 1101.47 206.528 1038.2C224.465 1010.37 239.978 980.147 254.522 948.588C283.286 885.47 308.656 818.928 344.854 762.658C386.061 698.498 442.458 648.48 530.527 633.593C554.605 629.574 577.713 628.234 600.983 630.021C698.91 637.613 787.787 697.158 889.754 733.183C935.647 749.409 983.641 759.532 1029.7 762.956C1081.08 766.826 1130.69 762.211 1173.84 749.558C1256.25 725.442 1317.34 673.935 1335.92 613.795C1351.59 563.33 1337.21 513.014 1335.44 457.339C1332.04 342.417 1373.09 197.722 1450.33 64.1912C1471.82 26.9753 1496.06 -9.19844 1523.37 -43.7347C1647.15 -200.339 1830.24 -315.708 2013.98 -351.137" stroke="#D4E8F7" stroke-miterlimit="10"/>
<path d="M-1342.85 1351.56C-1287.1 1247.21 -1169.14 1179.33 -1045.35 1160.57C-992.027 1152.53 -937.085 1152.83 -883.112 1160.72C-813.141 1170.99 -745.109 1192.58 -677.885 1214.16C-540.852 1257.93 -407.697 1300.05 -270.664 1274.15C-163.688 1254.06 -58.9736 1234.11 38.9535 1195.11C114.903 1164.89 169.361 1115.46 211.215 1052.49C229.636 1024.81 245.634 994.885 260.501 963.177C290.073 900.208 316.413 833.517 353.419 777.842C395.757 714.128 453.447 665.301 543.617 653.243C568.018 649.968 591.611 649.522 614.881 652.201C713.292 663.515 800.716 726.633 902.521 762.807C948.576 779.182 996.893 788.56 1043.27 790.793C1095.14 793.175 1145.24 786.476 1188.22 770.994C1270.31 741.519 1328.65 682.272 1342.38 616.772C1354.02 561.246 1334.47 507.655 1328.16 448.705C1315.07 326.786 1350.46 175.988 1426.09 38.7356C1447.1 0.477729 1471.34 -36.7381 1498.81 -71.8698C1623.56 -231.898 1813.6 -346.076 2004.44 -374.807" stroke="#D4E8F7" stroke-miterlimit="10"/>
<path d="M-1350.12 1340.55C-1292.11 1236.79 -1174.63 1168.91 -1050.52 1149.85C-997.036 1141.66 -942.094 1141.81 -887.959 1150C-817.827 1160.57 -749.957 1183.2 -682.894 1206.12C-546.184 1252.86 -413.191 1300.35 -275.027 1277.13C-166.919 1259.12 -60.7507 1242.59 39.4386 1206.27C117.489 1177.99 173.078 1129.31 216.063 1066.93C234.969 1039.54 251.452 1009.62 266.804 977.914C297.184 914.945 324.332 848.254 362.307 793.026C405.776 729.908 464.597 682.123 557.03 672.744C581.754 670.214 605.67 670.66 628.94 674.233C727.675 689.417 813.644 755.81 915.449 792.133C961.665 808.508 1010.31 817.291 1057.01 818.184C1109.36 819.226 1159.78 810.145 1202.77 791.835C1284.53 757.001 1340.12 690.161 1349.01 619.154C1356.44 558.864 1331.72 501.7 1320.89 439.327C1297.95 310.411 1327.84 153.658 1401.85 12.5356C1422.37 -26.7643 1446.61 -64.8733 1474.25 -100.749C1599.81 -264.201 1796.79 -377.337 1994.91 -399.369" stroke="#D4E8F7" stroke-miterlimit="10"/>
<path d="M-1357.39 1329.38C-1297.12 1226.22 -1180.12 1158.34 -1055.86 1138.84C-1002.37 1130.5 -947.265 1130.5 -892.968 1138.98C-822.836 1150 -755.127 1173.37 -688.065 1197.79C-551.517 1247.51 -419.008 1300.35 -279.551 1279.81C-170.474 1263.88 -62.5282 1250.93 39.7619 1217.14C119.913 1190.79 176.633 1143 220.749 1081.08C239.979 1053.83 256.947 1024.06 272.783 992.354C304.133 929.534 331.927 862.843 370.872 807.912C415.472 745.241 475.424 698.796 570.119 691.948C595.328 690.161 619.406 691.65 642.837 695.967C741.895 714.873 826.571 784.839 928.215 821.161C974.431 837.685 1023.56 845.724 1070.58 845.277C1123.42 844.83 1174.16 833.666 1217.15 812.527C1298.59 772.334 1351.43 697.902 1355.31 621.387C1358.54 556.185 1328.81 495.597 1313.46 429.948C1281.14 294.185 1304.89 131.329 1377.45 -13.6642C1397.65 -54.155 1421.57 -93.1572 1449.52 -129.629C1576.05 -296.207 1779.99 -408.152 1985.21 -423.485" stroke="#D4E8F7" stroke-miterlimit="10"/>
<path d="M-1364.67 1318.22C-1302.13 1215.8 -1185.62 1147.77 -1061.19 1127.97C-1007.54 1119.48 -952.274 1119.48 -897.978 1128.27C-827.845 1139.58 -760.136 1163.84 -693.236 1189.75C-557.011 1242.3 -424.664 1300.65 -284.075 1282.79C-174.029 1268.94 -64.4668 1259.41 40.0856 1228.45C122.338 1204.04 180.189 1157.15 225.436 1095.52C245.151 1068.57 262.603 1038.8 278.924 1007.09C311.082 944.42 339.684 877.58 379.76 823.245C425.491 761.169 486.575 715.617 583.532 711.747C609.064 710.705 633.465 713.086 656.897 718.445C756.439 741.073 839.5 814.611 941.143 850.934C987.521 867.606 1036.97 874.901 1084.48 873.114C1137.81 871.179 1189.03 857.93 1231.85 833.963C1312.98 788.56 1363.07 706.536 1362.1 624.364C1361.29 554.398 1326.55 490.238 1306.35 421.165C1264.5 278.406 1282.43 109.446 1353.21 -39.1199C1372.93 -80.6527 1396.84 -120.548 1424.96 -157.913C1552.78 -328.064 1763.67 -438.967 1976 -447.601" stroke="#D4E8F7" stroke-miterlimit="10"/>
<path d="M-1371.94 1307.05C-1307.3 1205.23 -1191.11 1137.35 -1066.52 1117.1C-1012.87 1108.47 -957.444 1108.32 -902.987 1117.4C-832.854 1129.01 -765.146 1154.32 -698.407 1181.56C-562.505 1237.09 -430.319 1300.8 -288.761 1285.76C-177.745 1274 -66.5672 1267.9 40.2476 1239.62C124.601 1217.14 183.583 1171.14 229.799 1109.96C249.999 1083.16 267.936 1053.54 284.58 1021.83C317.546 959.157 346.956 892.318 388.002 838.429C434.864 776.8 497.24 732.439 596.298 731.248C622.315 730.95 646.878 734.225 670.471 740.477C770.337 766.826 852.104 843.788 953.587 880.26C1000.13 896.932 1049.9 903.631 1097.73 900.654C1151.54 897.23 1203.25 881.897 1245.75 854.953C1326.71 804.34 1373.9 714.873 1368.08 626.894C1363.07 552.314 1323.32 484.432 1298.59 412.085C1247.21 262.328 1259.33 87.4139 1328.49 -65.0221C1347.72 -107.597 1371.63 -148.386 1399.75 -186.495C1528.54 -360.069 1746.54 -469.781 1965.98 -471.865" stroke="#D4E8F7" stroke-miterlimit="10"/>
<path d="M-1379.37 1296.03C-1312.47 1194.81 -1196.77 1126.93 -1071.86 1106.38C-1018.04 1097.6 -962.455 1097.3 -907.997 1106.68C-837.703 1118.74 -770.318 1144.79 -703.74 1173.52C-568 1232.02 -436.299 1300.95 -293.449 1288.74C-181.463 1279.21 -68.5076 1276.68 40.2463 1250.78C126.7 1230.53 186.814 1185.13 234.161 1124.25C254.845 1097.6 273.106 1068.13 290.235 1036.42C324.008 973.895 354.227 906.906 396.242 853.464C444.235 792.282 507.743 749.111 609.063 750.6C635.403 751.046 660.289 755.215 683.882 762.36C784.071 792.43 864.384 872.965 965.866 909.586C1012.41 926.407 1062.5 932.362 1110.82 928.045C1165.11 923.281 1217.15 905.567 1259.65 875.943C1340.28 819.97 1384.72 723.209 1373.9 629.425C1364.68 550.081 1319.92 478.775 1290.51 403.004C1229.59 246.4 1235.89 65.382 1303.44 -90.9244C1322.35 -134.541 1345.94 -176.372 1374.38 -215.076C1504.14 -392.075 1729.08 -500.596 1955.64 -495.981" stroke="#D4E8F7" stroke-miterlimit="10"/>
<path d="M-1386.64 1284.87C-1287.59 1140.92 -1094.48 1063.81 -913.006 1095.81C-699.377 1133.48 -512.572 1305.71 -297.973 1291.57C-185.018 1284.13 -70.4464 1285.02 40.5698 1261.8C167.746 1235.3 238.686 1155.21 296.376 1051.01C370.548 917.178 428.4 762.062 622.314 770.101C762.58 775.907 853.558 893.657 978.795 938.912C1078.01 974.788 1194.04 958.264 1274.35 896.932C1354.67 835.601 1396.52 731.545 1380.68 631.956C1367.43 547.997 1317.66 472.97 1283.56 393.774C1193.39 184.473 1219.25 -63.3847 1350.14 -243.807C1481.03 -424.229 1712.76 -531.709 1946.59 -520.246" stroke="#D4E8F7" stroke-miterlimit="10"/>
<path d="M-1375.17 1305.41C-1274.66 1172.78 -1082.68 1101.02 -902.502 1130.35C-812.332 1144.94 -726.848 1182.01 -642.495 1217.88C-556.041 1254.8 -470.88 1290.68 -382.003 1301.1C-353.4 1304.52 -324.313 1305.26 -294.902 1302.44C-184.209 1291.87 -72.5467 1289.34 37.9848 1265.37C163.222 1238.28 235.616 1161.46 295.245 1063.06C308.981 1040.44 322.232 1017.36 335.806 994.587C375.558 927.598 417.896 864.183 484.959 828.902C522.449 809.252 567.534 798.087 623.608 799.874C762.095 804.191 852.589 911.819 973.947 950.523C990.107 955.585 1006.59 959.306 1023.23 961.688C1106.13 973.299 1193.88 951.268 1257.87 899.463C1334.79 837.238 1374.54 734.225 1360.16 635.677C1348.04 552.165 1301.34 476.691 1269.99 397.496C1215.86 260.84 1209.72 108.552 1248.66 -29.8905C1269.67 -103.876 1303.44 -173.692 1349.66 -235.322C1433.85 -347.862 1557.79 -431.077 1696.93 -474.992C1776.92 -500.299 1861.92 -512.208 1947.08 -508.784" stroke="#D4E8F7" stroke-miterlimit="10"/>
<path d="M-1363.7 1326.11C-1261.73 1204.63 -1070.89 1138.39 -891.999 1165.18C-802.152 1178.58 -716.991 1212.22 -633.446 1244.08C-547.801 1276.83 -464.417 1307.94 -376.994 1315.09C-348.876 1317.47 -320.435 1317.17 -291.671 1313.6C-183.402 1300.05 -74.325 1294.1 35.5601 1269.09C159.019 1241.4 232.545 1167.57 294.275 1075.12C308.495 1053.83 322.392 1032.25 336.29 1010.96C377.335 948.439 420.158 889.787 487.22 857.335C524.872 839.174 569.634 828.604 624.738 829.795C761.448 832.624 851.618 930.278 969.098 962.432C984.773 966.6 1000.61 969.578 1016.77 971.215C1096.6 979.105 1180.47 954.84 1241.55 902.44C1314.91 839.322 1352.89 737.351 1339.64 639.697C1328.49 556.631 1285.18 480.86 1256.58 401.515C1207.13 264.859 1204.38 113.167 1245.43 -23.6382C1267.73 -97.0279 1302.63 -165.952 1349.49 -226.539C1434.98 -337.144 1559.08 -418.573 1698.38 -462.338C1778.21 -487.496 1862.88 -499.703 1947.88 -497.024" stroke="#D4E8F7" stroke-miterlimit="10"/>
<path d="M-1352.38 1346.8C-1248.96 1236.64 -1059.25 1175.6 -881.495 1199.87C-792.132 1211.93 -707.295 1242.3 -624.558 1270.28C-539.72 1298.86 -457.952 1325.36 -372.307 1329.08C-344.674 1330.27 -317.041 1329.08 -288.762 1324.77C-182.755 1308.09 -76.5865 1298.57 32.6522 1272.81C154.172 1244.23 229.152 1173.82 292.66 1087.18C307.365 1067.23 321.747 1047.14 336.129 1027.34C378.467 969.429 421.936 915.392 488.837 885.768C526.65 868.946 571.251 859.121 625.385 859.717C760.318 860.908 850.003 948.886 963.605 974.193C978.634 977.616 994.147 979.552 1009.5 980.445C1086.26 984.762 1166.08 958.264 1224.26 904.971C1294.23 840.96 1330.27 740.031 1318.31 643.269C1308.29 560.501 1268.05 484.581 1242.2 405.088C1197.43 268.283 1197.6 117.484 1241.06 -17.6836C1264.5 -90.6267 1300.69 -158.508 1348.2 -218.054C1434.98 -326.873 1559.25 -406.366 1698.87 -450.132C1778.53 -475.141 1863.05 -487.496 1947.72 -485.561" stroke="#D4E8F7" stroke-miterlimit="10"/>
<path d="M-1340.91 1367.49C-1236.04 1268.64 -1047.45 1212.97 -870.992 1234.55C-781.953 1245.27 -697.6 1272.51 -615.671 1296.33C-531.802 1320.9 -451.489 1342.48 -367.46 1342.78C-340.473 1342.93 -313.325 1340.84 -285.692 1335.63C-182.109 1316.13 -78.5264 1302.88 30.066 1276.39C149.647 1247.21 226.082 1179.92 291.528 1099.09C306.718 1080.48 321.585 1061.87 336.452 1043.71C380.082 990.27 424.198 940.996 490.937 914.052C528.912 898.719 573.351 889.787 626.516 889.489C759.671 888.894 849.033 967.047 958.595 985.804C973.139 988.335 988.006 989.525 1002.87 989.674C1076.56 990.27 1152.51 961.539 1207.78 907.651C1274.19 842.746 1308.13 742.859 1297.62 647.14C1288.57 564.818 1251.73 488.452 1228.62 408.81C1188.55 272.004 1191.94 121.801 1237.51 -11.5803C1262.23 -84.0767 1299.4 -150.916 1347.72 -209.568C1435.79 -316.452 1560.38 -394.159 1700 -437.776C1779.5 -462.636 1863.69 -475.289 1948.21 -474.099" stroke="#D4E8F7" stroke-miterlimit="10"/>
<path d="M-1329.44 1388.18C-1222.95 1300.5 -1035.82 1250.33 -860.489 1269.24C-771.934 1278.62 -687.743 1302.58 -606.622 1322.38C-523.562 1342.78 -445.026 1359.75 -362.451 1356.62C-335.949 1355.73 -309.447 1352.6 -282.622 1346.65C-181.302 1324.17 -80.6277 1307.35 27.3182 1279.96C144.96 1250.04 222.849 1185.88 290.234 1111C305.909 1093.58 321.422 1076.61 336.612 1059.94C381.374 1010.96 426.136 966.6 493.037 942.336C531.173 928.491 575.289 919.857 627.646 919.262C759.024 917.773 847.901 985.357 953.585 997.564C967.644 999.201 981.864 999.499 996.084 998.904C1066.7 995.778 1138.77 964.963 1191.13 910.33C1254.15 844.384 1286.15 745.687 1276.94 650.861C1269.02 568.987 1235.25 492.322 1215.05 412.531C1179.82 275.726 1186.28 126.267 1233.95 -5.62574C1259.97 -77.6756 1298.27 -143.473 1347.23 -201.083C1436.43 -306.032 1561.35 -381.803 1701.29 -425.42C1780.79 -450.132 1864.5 -463.083 1948.69 -462.636" stroke="#D4E8F7" stroke-miterlimit="10"/>
<path d="M-1318.13 1408.72C-1210.18 1332.36 -1024.18 1287.4 -849.984 1303.92C-761.753 1311.96 -678.046 1332.66 -597.733 1348.58C-515.481 1364.96 -438.562 1377.02 -357.764 1370.62C-331.747 1368.53 -305.891 1364.66 -279.713 1357.81C-180.816 1332.21 -82.7277 1311.96 24.5719 1283.68C140.274 1253.16 219.618 1192.13 288.943 1123.06C305.102 1106.98 321.1 1091.5 336.775 1076.31C382.829 1031.95 428.238 992.205 494.977 970.769C533.437 958.413 577.229 950.374 628.617 949.183C758.216 946.206 846.771 1003.82 948.414 1009.32C961.989 1010.07 975.562 1009.62 989.137 1008.28C1056.68 1001.43 1124.88 968.536 1174.33 913.159C1233.79 846.319 1263.85 748.813 1255.93 654.732C1248.98 573.304 1218.44 496.192 1200.99 416.402C1170.45 279.596 1180.14 130.882 1229.91 0.626459C1257.22 -70.8279 1296.65 -135.732 1346.42 -192.3C1436.92 -295.463 1561.99 -369.299 1702.1 -412.767C1781.44 -437.478 1864.99 -450.578 1948.85 -450.727" stroke="#D4E8F7" stroke-miterlimit="10"/>
<path d="M-1306.65 1429.42C-1197.25 1364.21 -1012.39 1324.77 -839.481 1338.61C-751.735 1345.31 -668.19 1362.73 -588.846 1374.63C-507.402 1386.84 -432.26 1394.14 -352.916 1384.46C-327.546 1381.33 -302.175 1376.42 -276.643 1368.98C-180.009 1340.4 -84.8291 1316.58 21.824 1287.4C135.749 1256.29 216.385 1198.38 287.649 1135.26C304.293 1120.53 320.776 1106.38 336.936 1092.84C384.122 1052.94 430.338 1018.11 496.915 999.35C535.537 988.483 579.168 981.04 629.424 979.254C757.246 974.788 845.477 1022.42 943.081 1021.23C956.17 1021.08 969.26 1019.74 982.187 1017.66C1046.5 1007.09 1110.98 971.96 1157.52 915.987C1213.59 848.254 1241.71 751.791 1235.08 658.751C1229.27 577.77 1202.12 500.361 1187.25 420.421C1161.72 283.467 1174.49 135.497 1226.2 7.02762C1254.8 -63.9802 1295.2 -127.843 1345.78 -183.517C1437.56 -284.744 1562.96 -356.794 1703.23 -400.262C1782.41 -424.825 1865.63 -438.074 1949.34 -439.116" stroke="#D4E8F7" stroke-miterlimit="10"/>
<path d="M-1295.18 1450.11C-1184.33 1396.22 -1000.59 1362.43 -828.977 1373.3C-741.554 1378.8 -658.494 1392.95 -579.796 1400.69C-499.322 1408.72 -425.634 1411.26 -347.907 1398.3C-323.021 1394.14 -298.297 1388.33 -273.411 1379.99C-179.039 1348.44 -86.6063 1321.19 19.4005 1291.12C131.386 1259.42 213.639 1204.63 286.518 1147.32C303.647 1133.92 320.615 1121.27 337.259 1109.21C385.576 1073.93 432.601 1043.71 499.017 1027.63C537.8 1018.26 581.107 1011.26 630.555 1009.03C756.6 1003.07 844.508 1040.73 938.072 1032.99C950.515 1031.95 963.119 1029.87 975.401 1027.04C1036.65 1012.75 1097.08 975.532 1140.87 918.667C1193.39 850.041 1219.73 754.619 1214.24 662.473C1209.39 581.789 1185.48 504.231 1173.36 424.143C1152.51 287.189 1168.51 139.963 1222.48 12.9823C1252.38 -57.5789 1293.91 -120.399 1345.13 -175.032C1438.21 -274.473 1563.77 -344.587 1704.2 -387.907C1783.22 -412.32 1866.12 -425.867 1949.66 -427.653" stroke="#D4E8F7" stroke-miterlimit="10"/>
<path d="M-1283.87 1470.8C-1171.56 1428.08 -989.119 1399.79 -818.473 1407.98C-731.535 1412.15 -648.636 1423.02 -570.909 1426.74C-491.242 1430.76 -419.332 1428.52 -343.22 1412.15C-318.82 1406.94 -294.742 1400.09 -270.502 1391.01C-178.554 1356.32 -88.8688 1325.66 16.6532 1294.7C126.7 1262.39 210.407 1210.59 285.225 1159.23C302.839 1147.17 320.453 1136.01 337.421 1125.44C386.869 1094.62 434.701 1069.32 501.117 1055.92C540.062 1048.03 583.208 1041.63 631.687 1038.8C755.954 1031.36 843.539 1058.9 933.224 1044.6C945.182 1042.67 957.14 1039.69 968.937 1036.12C1027.11 1018.11 1083.67 978.659 1124.55 921.197C1173.68 851.678 1197.92 757.299 1193.88 666.194C1190.16 585.957 1169.48 507.953 1160.1 427.715C1143.95 290.761 1163.34 144.28 1219.25 18.9368C1250.44 -51.0289 1293.1 -112.956 1344.97 -166.547C1439.18 -264.052 1565.06 -332.381 1705.81 -375.551C1784.67 -399.816 1867.41 -413.66 1950.63 -416.042" stroke="#D4E8F7" stroke-miterlimit="10"/>
<path d="M-1272.39 1491.49C-1158.63 1460.08 -977.321 1437.01 -807.968 1442.67C-721.353 1445.49 -638.939 1453.09 -562.02 1452.94C-483.161 1452.79 -412.867 1445.94 -338.371 1425.99C-314.617 1419.59 -291.024 1411.85 -267.431 1402.03C-177.745 1364.36 -90.8066 1330.27 13.9074 1298.27C122.177 1265.37 207.337 1216.69 283.934 1171.14C302.033 1160.42 320.131 1150.74 337.584 1141.66C388.163 1115.31 436.804 1094.92 503.058 1084.2C542.326 1077.8 584.987 1072 632.658 1068.57C755.147 1059.64 842.409 1077.21 928.055 1056.22C939.528 1053.39 950.84 1049.67 961.99 1045.35C1017.09 1023.61 1069.77 982.082 1107.75 923.877C1153.32 853.464 1175.78 760.127 1172.87 669.916C1170.29 590.125 1152.67 511.823 1146.05 431.437C1134.74 294.483 1157.2 148.597 1215.21 25.04C1247.85 -44.4791 1291.32 -105.364 1344 -158.062C1439.5 -253.632 1565.55 -320.174 1706.46 -363.344C1785.16 -387.46 1867.57 -401.453 1950.47 -404.728" stroke="#D4E8F7" stroke-miterlimit="10"/>
<path d="M-1260.92 1512.04C-1145.71 1491.94 -965.526 1474.22 -797.466 1477.35C-711.336 1478.99 -629.245 1483.16 -552.972 1478.99C-475.083 1474.82 -406.405 1463.06 -333.363 1439.84C-310.094 1432.39 -287.147 1423.76 -264.362 1413.04C-177.1 1372.25 -92.7475 1334.74 11.3202 1301.99C117.65 1268.49 204.427 1222.94 282.801 1183.2C301.384 1173.82 319.968 1165.63 337.905 1158.04C389.616 1136.3 439.064 1120.67 505.157 1112.49C544.586 1107.57 587.086 1102.36 633.625 1098.34C754.337 1087.78 841.276 1095.37 922.882 1067.98C933.87 1064.25 944.697 1059.64 955.039 1054.58C1007.07 1029.12 1055.87 985.506 1090.78 926.556C1132.96 855.251 1153.48 762.955 1151.86 673.637C1150.41 594.293 1136.03 515.693 1132.15 435.158C1125.52 298.204 1151.38 153.062 1211.33 30.9945C1245.27 -37.9292 1289.87 -97.9211 1343.19 -149.577C1439.99 -243.361 1566.36 -307.967 1707.43 -350.989C1785.96 -374.956 1868.22 -389.247 1950.79 -393.266" stroke="#D4E8F7" stroke-miterlimit="10"/>
<path d="M-1249.61 1532.73C-1132.78 1523.8 -953.891 1511.59 -786.963 1512.04C-701.155 1512.33 -619.388 1513.38 -544.084 1505.04C-467.003 1496.7 -399.941 1480.33 -328.677 1453.68C-305.892 1445.2 -283.592 1435.52 -261.454 1424.06C-176.454 1380.29 -95.01 1339.35 8.41131 1305.56C112.964 1271.47 201.195 1229.2 281.346 1195.11C300.415 1187.07 319.483 1180.37 337.905 1174.26C390.747 1157 441.003 1146.28 506.934 1140.77C546.525 1137.5 588.863 1132.58 634.433 1127.97C753.368 1115.91 839.983 1113.38 917.549 1079.44C928.053 1074.82 938.233 1069.46 948.09 1063.66C997.054 1034.48 1041.82 988.632 1073.97 928.938C1112.59 856.739 1131.34 765.486 1130.86 677.21C1130.53 598.164 1119.22 519.266 1118.09 438.731C1116.15 301.777 1145.4 157.379 1207.29 36.949C1242.52 -31.5281 1288.25 -90.4779 1342.38 -141.091C1440.47 -232.94 1567 -295.612 1708.24 -338.633C1786.61 -362.6 1868.54 -377.04 1950.95 -381.655" stroke="#D4E8F7" stroke-miterlimit="10"/>
<path d="M-1238.14 1553.42C-1119.85 1555.8 -942.093 1548.8 -776.458 1546.72C-691.135 1545.68 -609.691 1543.45 -535.195 1531.24C-458.922 1518.73 -393.476 1497.6 -323.828 1467.67C-301.69 1458.15 -279.874 1447.43 -258.382 1435.22C-175.806 1388.33 -96.9477 1344.12 5.82716 1309.28C108.44 1274.6 198.449 1235.45 280.055 1207.31C299.77 1200.61 319.161 1195.4 338.068 1190.94C392.041 1178.14 443.267 1172.48 509.036 1169.5C548.95 1167.71 590.804 1163.4 635.566 1158.19C752.884 1144.64 839.015 1131.99 912.541 1091.5C922.56 1085.99 932.094 1079.74 941.305 1073.19C987.198 1040.29 1028.08 992.354 1057.33 931.915C1092.56 858.824 1109.36 768.612 1110.17 681.23C1110.82 602.63 1102.9 523.435 1104.52 442.751C1107.26 305.648 1139.74 162.143 1203.74 43.3503C1240.26 -24.6802 1286.96 -82.588 1341.9 -132.16C1441.12 -222.073 1567.97 -282.958 1709.53 -325.831C1787.9 -349.649 1869.35 -364.386 1951.6 -369.745" stroke="#D4E8F7" stroke-miterlimit="10"/>
<path d="M-1226.66 1574.11C-1106.92 1587.66 -930.297 1586.17 -765.955 1581.41C-680.955 1579.02 -599.834 1573.52 -526.147 1557.29C-450.681 1540.77 -387.013 1514.86 -318.819 1481.52C-297.165 1470.95 -275.996 1459.19 -255.151 1446.24C-174.838 1396.22 -98.8875 1348.58 3.24097 1313.01C104.077 1277.72 195.54 1241.85 278.923 1219.37C299.123 1214.01 318.999 1210.29 338.391 1207.31C393.495 1198.83 445.529 1196.59 511.136 1197.79C551.212 1198.53 592.904 1193.77 636.696 1187.96C752.237 1172.78 838.044 1150.15 907.531 1103.11C917.065 1096.71 925.953 1089.71 934.679 1082.42C977.502 1045.8 1014.51 995.629 1040.85 934.595C1072.52 860.61 1087.55 771.441 1089.49 684.951C1091.26 606.798 1086.42 527.305 1090.78 446.323C1098.21 309.22 1134.09 166.46 1200.18 49.156C1238.16 -18.2791 1285.83 -75.2937 1341.42 -123.972C1441.93 -212.099 1569.1 -271.049 1710.66 -313.922C1788.87 -337.591 1870.16 -352.477 1952.09 -358.581" stroke="#D4E8F7" stroke-miterlimit="10"/>
<path d="M-1215.35 1594.65C-1094.15 1619.51 -918.823 1622.94 -755.45 1615.94C-670.936 1612.07 -590.138 1603.59 -517.258 1583.19C-442.762 1562.5 -380.548 1531.98 -314.132 1495.07C-292.963 1483.31 -272.441 1470.8 -252.241 1456.96C-174.352 1403.96 -100.988 1352.9 0.494531 1316.28C99.3911 1280.55 192.47 1247.65 277.631 1230.98C298.316 1226.96 318.677 1224.58 338.553 1223.24C394.626 1219.22 447.63 1223.69 513.076 1225.77C553.475 1227.11 594.682 1223.84 637.505 1217.44C751.268 1200.76 836.752 1168.01 902.36 1114.57C911.248 1107.28 919.813 1099.39 927.731 1091.35C967.483 1051.01 1000.61 998.755 1024.04 936.977C1052.32 862.099 1065.25 773.971 1068.48 688.524C1071.39 610.817 1069.45 530.878 1076.88 449.896C1088.68 312.793 1128.27 170.777 1196.3 55.1105C1235.57 -11.878 1284.37 -67.8506 1340.61 -115.487C1442.41 -201.679 1569.75 -258.842 1711.63 -301.566C1789.68 -325.086 1870.64 -340.27 1952.25 -347.118" stroke="#D4E8F7" stroke-miterlimit="10"/>
<path d="M-1203.88 1615.35C-1081.23 1651.52 -907.028 1660.3 -744.947 1650.78C-660.756 1645.57 -580.443 1633.81 -508.371 1609.54C-434.683 1584.83 -374.247 1549.4 -309.285 1509.21C-288.762 1496.41 -268.886 1482.86 -249.171 1468.27C-173.545 1412.15 -102.927 1357.81 -2.09156 1320.15C95.0275 1283.83 189.561 1254.35 276.499 1243.19C297.668 1240.51 318.514 1239.91 338.875 1239.76C396.08 1239.17 449.892 1249.59 515.176 1254.35C555.737 1257.18 596.782 1254.35 638.635 1247.51C750.621 1229.2 835.621 1186.32 897.35 1126.48C905.753 1118.29 913.671 1109.66 920.943 1100.88C957.625 1056.81 986.874 1002.33 1007.4 939.954C1032.12 864.183 1043.27 777.098 1047.8 692.543C1051.84 615.134 1053.13 535.046 1063.15 453.915C1079.79 316.812 1122.61 175.541 1192.59 61.3628C1233.31 -5.03024 1282.92 -60.1097 1339.96 -106.704C1442.9 -190.961 1570.56 -246.338 1712.6 -288.913C1790.49 -312.284 1871.13 -327.766 1952.57 -335.358" stroke="#D4E8F7" stroke-miterlimit="10"/>
<path d="M-1192.41 1636.04C-1068.3 1683.38 -895.231 1697.67 -734.443 1685.46C-650.736 1678.91 -570.585 1663.88 -499.321 1635.59C-426.442 1606.71 -367.459 1566.82 -304.275 1523.05C-284.237 1509.21 -265.007 1494.62 -246.101 1479.29C-172.898 1420.04 -104.866 1362.43 -4.83833 1323.72C90.3415 1286.95 186.491 1260.61 275.207 1255.1C296.861 1253.76 318.192 1254.35 339.037 1255.99C397.373 1260.75 451.993 1275.34 517.116 1282.49C557.838 1286.95 598.722 1284.57 639.605 1277.13C749.814 1257.18 834.328 1204.34 892.179 1137.94C900.098 1128.86 907.369 1119.33 914.156 1109.81C947.607 1062.02 972.977 1005.45 990.753 942.187C1012.08 865.374 1021.29 779.479 1026.95 695.818C1032.12 618.856 1036.48 538.47 1049.41 457.19C1070.74 320.087 1116.96 179.56 1188.87 67.0196C1230.88 1.22205 1281.63 -53.113 1339.31 -98.6652C1443.54 -181.135 1571.37 -234.577 1713.73 -277.003C1791.46 -300.226 1871.93 -315.857 1953.06 -324.193" stroke="#D4E8F7" stroke-miterlimit="10"/>
<path d="M-1181.09 1656.73C-1055.53 1715.38 -883.596 1734.88 -723.939 1720.15C-640.556 1712.26 -560.889 1693.95 -490.434 1661.64C-418.524 1628.74 -361.157 1583.94 -299.427 1536.9C-279.874 1522.01 -261.291 1506.38 -243.031 1490.3C-172.413 1427.78 -106.805 1367.19 -7.424 1327.45C85.9783 1290.08 183.582 1265.96 273.914 1267.3C296.214 1267.6 318.03 1269.24 339.36 1272.51C398.828 1281.6 454.255 1301.39 519.378 1311.07C560.262 1317.17 600.822 1315.09 640.898 1307.2C749.329 1285.76 833.52 1222.79 887.331 1150C894.765 1140.03 901.39 1129.75 907.531 1119.48C937.911 1067.98 959.403 1009.32 974.27 945.313C992.045 867.606 999.641 782.754 1006.43 700.135C1012.73 623.619 1020.32 542.787 1036 461.507C1062.02 324.255 1111.79 184.622 1185.48 73.7184C1228.94 8.36745 1280.66 -44.9256 1338.99 -89.4358C1444.51 -169.971 1572.66 -221.626 1715.02 -264.052C1792.59 -287.126 1872.74 -303.055 1953.7 -312.135" stroke="#D4E8F7" stroke-miterlimit="10"/>
<path d="M-1169.62 1677.42C-1042.45 1747.24 -871.8 1772.25 -713.436 1754.83C-630.538 1745.6 -551.033 1724.17 -481.385 1687.84C-410.283 1650.78 -354.532 1601.35 -294.58 1550.89C-275.512 1534.96 -257.575 1518.44 -239.961 1501.47C-171.606 1435.97 -108.745 1371.96 -10.1718 1331.17C81.4529 1293.36 180.511 1273.56 272.621 1279.36C295.406 1280.85 317.706 1284.13 339.521 1288.89C400.281 1302.29 456.193 1327.3 521.316 1339.5C562.362 1347.24 602.761 1345.61 641.705 1337.12C748.358 1314.05 832.065 1241.1 881.998 1161.76C888.947 1150.89 895.088 1139.73 900.582 1128.71C927.891 1073.48 945.505 1012.6 957.302 947.993C971.684 869.393 977.34 785.583 985.258 703.857C992.853 627.788 1003.36 546.657 1021.78 465.08C1052.48 327.828 1105.81 189.088 1181.27 79.5242C1226.2 14.7687 1278.72 -37.6312 1338.02 -81.0993C1444.84 -159.848 1573.14 -209.419 1715.83 -251.845C1793.24 -274.919 1873.23 -290.997 1953.7 -300.822" stroke="#D4E8F7" stroke-miterlimit="10"/>
<path d="M-1158.15 1697.97C-1029.52 1779.1 -860.165 1809.46 -702.932 1789.52C-620.357 1778.95 -541.337 1754.24 -472.497 1713.89C-402.203 1672.66 -348.068 1618.62 -289.732 1564.58C-271.31 1547.61 -253.858 1530.05 -236.89 1512.48C-170.959 1443.86 -110.684 1376.72 -12.7571 1334.74C77.0902 1296.48 177.441 1279.96 271.49 1291.27C294.76 1294.1 317.545 1298.71 339.845 1305.12C401.736 1322.83 458.456 1353.05 523.418 1367.79C564.786 1377.17 604.7 1375.83 642.837 1366.89C747.551 1342.03 830.772 1259.12 876.989 1173.37C883.291 1161.61 888.947 1149.7 893.795 1137.94C918.034 1078.99 931.77 1016.02 940.658 950.672C951.484 871.179 955.363 788.411 964.574 707.578C973.3 631.956 987.036 550.528 1008.2 468.802C1043.59 331.55 1100.31 193.553 1177.88 85.6276C1224.26 21.4675 1277.75 -30.0392 1337.7 -72.6141C1445.64 -149.428 1574.27 -197.213 1717.12 -239.49C1794.53 -262.415 1874.03 -278.79 1954.35 -289.21" stroke="#D4E8F7" stroke-miterlimit="10"/>
<path d="M-1146.67 1718.66C-948.073 1859.63 -660.594 1868.56 -463.447 1739.95C-394.123 1694.69 -341.604 1635.74 -284.722 1578.43C-196.976 1489.85 -137.509 1392.2 -15.3422 1338.31C94.3813 1289.93 225.759 1281.15 340.007 1321.49C403.029 1343.67 460.557 1378.95 525.357 1396.07C697.618 1441.47 840.954 1283.38 887.008 1147.17C933.871 1008.43 924.822 856.888 943.89 711.3C970.23 509.59 1047.15 261.286 1174.16 91.7309C1307.64 -86.6073 1495.9 -161.486 1718.1 -227.134C1795.34 -249.91 1874.52 -266.434 1954.67 -277.748" stroke="#D4E8F7" stroke-miterlimit="10"/>
</g>
</g>
<g opacity="0.1">
<mask id="mask1_239_1062" style="mask-type:luminance" maskUnits="userSpaceOnUse" x="-5" y="90" width="1940" height="1191">
<path d="M1934.15 90.0935H-5V1281H1934.15V90.0935Z" fill="white"/>
</mask>
<g mask="url(#mask1_239_1062)">
<path d="M2256.85 802.255C2212.42 728.568 2161.51 657.114 2094.13 600.099C2026.74 543.084 1941.42 501.105 1850.28 495.002C1759.14 488.898 1662.67 522.541 1609.34 591.018C1579.93 628.681 1565.06 673.935 1546.32 716.957C1527.57 759.978 1503.01 803.298 1461.32 829.2C1419.63 855.102 1356.93 857.335 1323.15 822.948C1286.31 785.285 1297.3 722.763 1263.04 683.016C1224.58 638.357 1150.73 643.567 1089.65 652.946C1028.57 662.324 954.878 667.981 915.933 623.768C884.745 588.339 892.987 532.217 926.76 498.872C960.534 465.527 1013.54 453.171 1062.82 457.488C1112.11 461.805 1158.49 480.562 1202.28 501.701C1258.19 528.645 1323.48 560.65 1380.36 535.79C1411.87 522.095 1432.55 493.215 1445.16 463.294C1457.76 433.372 1463.9 401.515 1475.22 371.147C1511.41 274.237 1604.82 197.424 1713.41 175.094C1795.98 158.124 1885.83 170.48 1962.59 137.879C2024.48 111.679 2068.6 60.0231 2110.13 10.3027L2256.85 802.255Z" fill="#2B3640"/>
</g>
</g>
<g opacity="0.1">
<mask id="mask2_239_1062" style="mask-type:luminance" maskUnits="userSpaceOnUse" x="-5" y="90" width="1940" height="1191">
<path d="M1934.15 90.0935H-5V1281H1934.15V90.0935Z" fill="white"/>
</mask>
<g mask="url(#mask2_239_1062)">
<path d="M-343.381 1431.05C-190.188 1453.38 -28.1076 1418.25 98.0987 1335.19C200.066 1268.2 282.964 1169.95 402.868 1136.6C465.083 1119.33 531.337 1121.57 596.137 1124.99C660.937 1128.41 726.706 1133.03 790.052 1120.23C853.397 1107.43 915.45 1074.08 943.891 1020.34C966.514 977.616 964.898 924.621 939.528 883.088C914.157 841.555 866.001 812.676 814.614 808.21C738.341 801.66 668.693 844.681 607.125 886.512C545.557 928.343 477.687 972.853 401.252 969.875C293.791 965.707 214.124 869.839 108.118 853.167C15.5233 838.578 -73.6776 886.959 -153.021 933.255L-343.381 1431.05Z" fill="#2B3640"/>
</g>
</g>
<g opacity="0.1">
<mask id="mask3_239_1062" style="mask-type:luminance" maskUnits="userSpaceOnUse" x="-5" y="90" width="1940" height="1191">
<path d="M1934.15 90.0935H-5V1281H1934.15V90.0935Z" fill="white"/>
</mask>
<g mask="url(#mask3_239_1062)">
<path d="M-73.5166 1214.31C-59.6194 1142.26 19.7242 1099.24 95.9974 1090.9C172.271 1082.57 250.16 1098.94 327.402 1098.94C534.245 1098.79 729.291 967.643 796.999 783.052C818.653 723.953 828.188 660.835 849.357 601.439C870.526 542.191 906.4 484.284 964.736 456.148C1048.6 415.509 1153.64 446.77 1238.32 492.173C1322.99 537.577 1402.18 597.717 1495.9 618.558C1619.04 645.949 1747.18 598.759 1841.39 522.988C1935.6 447.217 2002.18 345.245 2067.14 244.911" stroke="#FF4DC4" stroke-miterlimit="10"/>
<path d="M-78.2031 1207.31C-62.8515 1135.56 16.1688 1092.69 92.6036 1084.05C125.731 1080.33 159.019 1081.23 192.47 1083.76C236.424 1087.03 280.378 1092.84 324.009 1093.73C413.048 1095.52 499.986 1074.53 576.26 1033.74C635.242 1002.18 687.599 960.646 729.452 910.777C759.348 875.347 783.264 835.452 799.908 792.133C807.341 772.78 813.482 752.833 819.138 732.736C830.611 691.948 839.984 650.564 854.851 611.115C871.657 566.307 897.189 522.988 935.002 493.513C946.799 484.283 959.565 476.394 973.623 470.141C1032.44 444.09 1100.48 453.022 1165.6 475.203C1193.72 484.73 1221.35 496.788 1247.04 509.59C1275.81 524.03 1303.93 539.512 1331.88 554.398C1386.82 583.575 1441.28 610.519 1500.1 620.196C1538.4 626.597 1576.05 624.81 1613.54 617.218C1689.33 601.588 1763.99 559.906 1826.2 506.613C1843.17 492.024 1859.49 476.543 1875.33 460.614C1945.3 389.458 2003.8 307.285 2061.49 229.578" stroke="#F552C5" stroke-miterlimit="10"/>
<path d="M-82.7275 1200.32C-65.9216 1129.01 12.7755 1086.14 89.3719 1077.21C122.499 1073.34 155.949 1074.23 189.561 1076.91C233.515 1080.48 277.308 1086.88 321.1 1088.67C409.978 1092.39 496.593 1074.68 573.674 1035.67C633.303 1005.45 686.468 965.856 729.937 917.922C760.964 883.535 785.688 844.235 803.14 801.213C810.897 782.01 817.361 762.062 823.178 741.966C835.136 701.326 844.994 659.793 860.507 620.642C878.121 576.132 904.461 533.855 943.567 505.869C955.687 497.235 968.614 489.791 982.673 484.135C1041.82 460.465 1108.88 471.63 1173.84 493.811C1202.12 503.487 1229.91 514.949 1255.77 527.007C1284.86 540.405 1313.3 554.696 1341.09 567.647C1395.87 593.4 1448.72 616.176 1504.14 621.833C1540.02 625.555 1574.44 621.238 1608.86 611.413C1678.67 591.316 1749.61 545.764 1810.69 490.238C1827.5 474.905 1843.65 458.977 1859.49 442.602C1930.11 369.361 1992.97 287.784 2055.18 214.394" stroke="#EB57C7" stroke-miterlimit="10"/>
<path d="M-87.4141 1193.17C-69.1537 1122.31 9.05851 1079.29 85.8165 1070.21C118.944 1066.34 152.556 1067.08 186.168 1069.91C230.122 1073.63 273.914 1080.63 317.545 1083.31C406.261 1088.82 492.715 1074.68 570.604 1037.31C630.717 1008.43 685.013 970.918 729.937 924.77C762.256 891.574 787.788 852.869 805.887 810.145C813.967 791.091 820.592 771.292 826.895 751.195C839.337 710.556 849.841 669.023 865.839 630.17C884.1 585.957 911.409 544.722 951.647 518.075C964.089 509.888 977.017 503.04 991.237 497.979C1050.54 476.691 1116.8 490.089 1181.76 512.27C1210.04 521.946 1237.99 533.111 1264.33 544.275C1293.74 556.78 1322.35 569.433 1350.14 580.896C1404.76 603.225 1456.31 621.833 1508.18 623.322C1541.79 624.364 1572.66 617.516 1604.01 605.607C1667.84 581.342 1735.06 531.771 1795.01 473.714C1811.5 457.786 1827.66 441.113 1843.66 424.292C1914.92 348.818 1982.3 267.985 2048.88 198.913" stroke="#E15DC8" stroke-miterlimit="10"/>
<path d="M-92.0996 1186.17C-72.3849 1115.61 5.50422 1072.74 82.4238 1063.36C115.713 1059.34 149.324 1060.09 182.936 1063.21C226.89 1067.23 270.683 1074.68 314.152 1078.4C402.707 1085.69 488.999 1074.97 567.534 1039.39C628.294 1011.86 683.56 976.426 729.938 932.064C763.55 900.059 789.89 861.95 808.635 819.524C817.038 800.469 823.987 780.819 830.45 760.723C843.378 720.232 854.367 678.55 871.173 639.995C890.241 596.229 918.197 555.738 959.889 530.729C972.493 523.137 985.744 516.736 999.803 512.27C1059.43 493.364 1124.72 508.995 1189.52 531.325C1217.8 541.15 1246.07 551.719 1272.58 562.139C1302.15 573.751 1331.24 585.064 1358.87 594.591C1413.33 613.348 1463.58 627.937 1511.9 625.406C1543.25 623.769 1570.56 614.39 1599 600.248C1656.85 571.518 1720.2 518.225 1779.34 457.786C1795.5 441.113 1811.66 423.994 1827.82 406.726C1899.73 329.168 1971.48 249.08 2042.58 184.175" stroke="#D762CA" stroke-miterlimit="10"/>
<path d="M-96.625 1179.18C-75.6176 1109.06 2.10996 1066.19 79.1911 1056.51C112.48 1052.35 146.253 1053.09 179.865 1056.37C223.819 1060.53 267.612 1068.72 310.919 1073.19C399.312 1082.42 485.443 1074.97 564.786 1041.18C626.193 1014.98 682.266 981.487 730.26 939.061C765.165 908.097 792.151 870.733 811.705 828.456C820.431 809.55 827.703 789.9 834.328 769.803C847.902 729.313 859.375 687.631 876.666 649.373C896.381 605.905 925.306 566.456 968.291 542.787C981.218 535.641 994.469 529.836 1008.69 525.965C1068.48 509.442 1132.96 527.156 1197.76 549.635C1226.2 559.46 1254.64 569.731 1281.46 579.258C1311.36 589.977 1340.61 599.802 1368.24 607.691C1422.54 623.024 1471.5 633.445 1516.26 626.746C1545.51 622.429 1569.1 610.52 1594.64 594.145C1646.51 561.097 1706.14 503.785 1764.15 440.964C1780.15 423.547 1796.15 405.833 1812.31 388.118C1884.86 308.327 1960.97 228.983 2036.76 168.396" stroke="#CD67CB" stroke-miterlimit="10"/>
<path d="M-101.311 1172.03C-78.8487 1102.36 -1.44434 1059.34 75.7984 1049.67C109.087 1045.5 143.022 1046.09 176.634 1049.52C220.75 1053.98 264.381 1062.62 307.688 1067.98C395.92 1078.99 481.888 1075.12 561.878 1042.97C623.931 1018.11 680.974 986.697 730.423 946.057C766.62 916.285 794.414 879.516 814.614 837.536C823.502 818.779 831.097 799.278 838.207 779.182C852.266 738.691 864.224 697.009 882.161 659.049C902.522 615.879 932.256 577.323 976.695 555.291C989.945 548.741 1003.36 543.382 1017.58 540.107C1077.69 525.965 1141.2 545.913 1206 568.391C1234.44 578.216 1263.2 588.041 1290.19 596.824C1320.41 606.649 1349.82 614.985 1377.61 621.089C1431.59 632.998 1479.74 639.25 1520.63 628.532C1547.77 621.387 1567.81 606.947 1590.27 588.637C1636.17 551.272 1692.08 490.089 1749.12 424.887C1764.8 406.875 1780.79 388.564 1797.12 370.403C1870.32 288.528 1950.95 209.78 2031.11 153.36" stroke="#C36CCD" stroke-miterlimit="10"/>
<path d="M-105.836 1165.04C-81.9198 1095.81 -4.83863 1052.79 72.4041 1042.82C105.854 1038.5 139.79 1039.1 173.563 1042.67C217.679 1047.28 261.148 1056.51 304.456 1062.92C392.525 1075.87 478.333 1075.27 558.969 1044.9C621.668 1021.38 679.681 992.056 730.422 953.203C767.912 924.621 796.515 888.447 817.36 846.766C826.571 828.158 834.49 808.657 841.761 788.56C856.305 748.218 868.748 706.388 887.331 668.725C908.5 625.853 938.88 588.339 984.774 567.647C998.186 561.544 1011.76 556.78 1026.14 553.952C1086.42 542.191 1149.12 564.372 1213.75 586.85C1242.36 596.824 1271.28 606.203 1298.43 614.092C1328.97 623.024 1358.71 629.872 1386.34 634.338C1440.15 642.823 1487.17 644.609 1524.18 630.17C1549.39 620.345 1565.55 603.374 1585.1 582.831C1625.02 541 1677.05 476.096 1733.12 408.363C1748.64 389.606 1764.47 370.701 1780.96 352.093C1854.8 267.985 1939.8 190.13 2024.48 137.879" stroke="#B972CE" stroke-miterlimit="10"/>
<path d="M-110.521 1158.04C-85.151 1089.12 -8.39293 1046.24 69.0114 1035.97C102.462 1031.51 136.558 1032.1 170.332 1035.82C214.448 1040.73 257.917 1050.41 301.063 1057.71C388.971 1072.44 474.617 1075.27 556.061 1046.69C619.406 1024.51 678.389 997.267 730.584 960.2C769.367 932.66 798.616 897.23 820.27 855.698C829.804 837.239 837.884 817.737 845.479 797.641C860.507 757.299 873.597 715.468 892.665 678.104C914.48 635.529 945.83 598.908 992.854 579.854C1006.59 574.346 1020.33 570.029 1034.71 567.796C1095.31 558.418 1156.87 582.831 1221.67 605.31C1250.28 615.283 1279.36 624.215 1307 631.361C1337.86 639.399 1367.76 644.907 1395.39 647.438C1449.04 652.499 1495.09 649.82 1528.22 631.51C1551.49 618.707 1563.77 599.355 1580.42 576.877C1614.35 530.58 1662.67 461.954 1717.77 391.84C1732.96 372.487 1748.8 352.986 1765.28 333.783C1839.78 247.591 1929.14 170.331 2018.34 122.397" stroke="#AF77CF" stroke-miterlimit="10"/>
<path d="M-115.047 1150.89C-88.222 1082.42 -11.7872 1039.39 65.7788 1028.97C99.2291 1024.51 133.326 1024.95 167.261 1028.83C211.377 1033.89 254.846 1044.31 297.83 1052.49C385.577 1069.17 470.899 1075.42 553.152 1048.48C617.143 1027.63 677.095 1002.48 730.745 967.196C770.821 940.847 800.878 906.013 823.178 864.778C833.035 846.468 841.438 827.116 849.356 807.019C865.031 766.826 878.444 724.847 898.32 687.78C920.943 645.502 952.939 609.775 1001.42 592.358C1015.32 587.297 1029.21 583.724 1043.76 581.938C1104.52 574.941 1165.28 601.588 1230.08 624.066C1258.84 634.04 1288.09 642.674 1315.88 648.926C1347.07 655.923 1377.13 660.091 1404.76 660.984C1458.09 662.622 1503.33 655.179 1532.58 633.445C1553.91 617.665 1562.32 596.08 1576.05 571.369C1604.01 520.755 1648.61 448.11 1702.58 375.762C1717.45 355.666 1733.29 335.569 1749.93 316.068C1825.07 227.792 1918.8 151.127 2012.52 107.51" stroke="#A57CD1" stroke-miterlimit="10"/>
<path d="M-119.733 1143.9C-91.6157 1075.87 -15.3426 1032.84 62.3849 1022.13C95.8352 1017.51 130.094 1017.96 164.029 1022.13C208.144 1027.49 251.614 1038.35 294.598 1047.43C382.183 1065.89 467.344 1075.57 550.404 1050.41C615.042 1030.91 676.126 1007.84 731.068 974.342C772.437 949.184 803.301 914.945 826.248 874.008C836.429 855.846 845.155 836.494 853.235 816.398C869.394 776.205 883.453 734.225 903.814 697.456C927.084 655.625 959.888 620.642 1009.82 604.714C1024.04 600.248 1038.1 597.122 1052.64 595.931C1113.73 591.316 1173.52 620.047 1238.16 642.674C1266.92 652.797 1296.49 660.835 1324.45 666.343C1355.8 672.447 1386.34 675.126 1413.81 674.233C1466.98 672.447 1511.25 660.091 1536.62 634.933C1555.85 615.879 1560.7 592.209 1571.37 565.414C1593.34 510.335 1634.23 433.968 1687.07 359.09C1701.77 338.249 1717.45 317.706 1734.25 297.609C1810.04 207.1 1908.29 131.329 2006.54 91.8799" stroke="#9B81D2" stroke-miterlimit="10"/>
<path d="M-124.419 1136.9C-94.8469 1069.17 -18.8969 1026.29 58.8306 1015.28C92.4426 1010.52 126.701 1010.96 160.798 1015.28C204.913 1020.79 248.221 1032.25 291.205 1042.22C378.628 1062.62 463.628 1075.57 547.334 1052.2C612.619 1034.04 674.672 1013.05 731.069 981.338C773.73 957.371 805.403 923.728 828.996 882.94C839.5 864.927 848.387 845.575 856.79 825.478C873.435 785.285 887.978 743.455 908.986 706.834C932.902 665.301 966.514 631.212 1017.9 616.921C1032.28 612.902 1046.67 610.371 1061.05 609.775C1122.29 607.542 1181.27 638.506 1245.91 661.133C1274.84 671.256 1304.57 678.997 1332.85 683.612C1364.52 688.822 1395.23 690.162 1422.7 687.482C1475.54 682.272 1518.69 664.855 1540.5 636.571C1557.63 614.39 1558.76 588.637 1566.52 559.757C1582.52 500.212 1619.52 420.123 1671.56 342.863C1685.94 321.427 1701.61 300.14 1718.42 279.745C1794.85 187.152 1897.47 111.976 2000.24 76.8447" stroke="#9187D4" stroke-miterlimit="10"/>
<path d="M-128.943 1129.75C-97.917 1062.47 -22.2902 1019.45 55.599 1008.28C89.2109 1003.52 123.631 1003.82 157.727 1008.28C202.005 1014.09 245.151 1026.15 287.973 1037.01C375.235 1059.19 460.073 1075.57 544.588 1053.98C610.519 1037.16 673.541 1018.26 731.392 988.335C775.346 965.559 807.665 932.511 832.066 892.02C842.732 874.157 852.104 854.953 860.669 834.857C877.798 794.812 892.826 752.833 914.48 716.659C939.204 675.424 973.463 642.079 1026.3 629.425C1041.01 625.853 1055.39 623.917 1069.94 623.917C1131.5 624.066 1189.52 657.263 1254.15 680.039C1283.08 690.162 1312.98 697.456 1341.58 701.326C1373.57 705.643 1404.44 705.495 1431.91 701.029C1484.59 692.543 1526.28 669.916 1544.54 638.357C1559.41 612.902 1556.98 585.064 1561.67 554.101C1571.53 490.089 1604.98 406.13 1655.88 326.489C1669.94 304.308 1685.45 282.574 1702.58 261.584C1779.66 166.758 1886.64 92.3266 1993.94 61.363" stroke="#878CD5" stroke-miterlimit="10"/>
<path d="M-133.63 1122.76C-101.149 1055.92 -25.8455 1012.9 52.2052 1001.58C85.8171 996.671 120.399 996.969 154.495 1001.58C198.773 1007.54 241.919 1020.19 284.58 1031.95C371.68 1055.92 456.356 1075.87 541.517 1055.92C607.933 1040.44 672.086 1023.62 731.392 995.48C776.8 973.895 809.766 941.443 834.813 901.25C845.802 883.535 855.498 864.331 864.385 844.235C882.161 804.191 897.674 762.211 919.974 726.335C945.345 685.398 980.411 652.946 1034.55 641.93C1049.41 638.953 1064.12 637.464 1078.66 638.059C1140.39 640.59 1197.6 676.019 1262.07 698.796C1291 709.067 1321.22 715.766 1349.98 718.892C1382.3 722.316 1413.33 720.827 1440.8 714.575C1493.15 702.666 1533.39 674.977 1548.42 640.292C1560.86 611.562 1555.05 581.789 1556.82 548.592C1560.7 480.264 1590.43 392.435 1640.37 310.411C1654.27 287.486 1669.62 265.157 1686.75 243.869C1764.47 146.959 1875.81 73.272 1987.64 46.4766" stroke="#7D91D7" stroke-miterlimit="10"/>
<path d="M-138.154 1115.76C-104.219 1049.22 -29.2388 1006.35 48.9735 994.736C82.747 989.675 117.329 989.972 151.425 994.736C195.702 1000.99 238.848 1014.09 281.51 1026.89C368.448 1052.79 452.963 1076.02 538.932 1057.85C605.994 1043.71 671.279 1029.12 731.877 1002.63C778.578 982.231 812.352 950.375 838.045 910.33C849.357 892.616 859.215 873.561 868.426 853.465C886.686 813.569 902.684 771.441 925.63 735.863C951.809 695.223 987.522 663.515 1043.11 654.137C1058.3 651.606 1073.01 650.713 1087.71 651.904C1149.76 656.667 1206 694.479 1270.48 717.255C1299.56 727.526 1329.94 733.927 1359.03 736.16C1391.67 738.691 1423.02 735.714 1450.33 727.675C1502.53 712.342 1541.15 679.741 1552.94 641.781C1562.8 609.775 1553.75 577.919 1552.62 542.787C1550.36 469.993 1576.54 378.442 1625.34 293.888C1638.91 270.367 1654.27 247.442 1671.56 225.559C1749.93 126.416 1865.79 53.4732 1982.14 30.9949" stroke="#7396D8" stroke-miterlimit="10"/>
<path d="M-142.841 1108.62C-107.613 1042.52 -32.7941 999.5 45.4182 987.739C79.1917 982.678 113.935 982.827 148.193 987.888C192.47 994.289 235.616 1008.13 278.116 1021.68C364.893 1049.37 449.084 1076.02 535.861 1059.64C603.57 1046.84 669.824 1034.33 731.877 1009.62C779.871 990.419 814.291 959.158 840.793 919.411C852.427 901.845 862.608 882.94 871.98 862.843C890.726 822.948 907.37 780.819 930.801 745.539C957.626 705.197 993.985 674.382 1051.19 666.641C1066.7 664.557 1081.57 664.259 1096.28 666.046C1158.49 673.191 1213.92 713.087 1278.23 736.012C1307.32 746.432 1338.02 752.238 1367.27 753.726C1400.08 755.215 1431.75 751.047 1459.06 741.222C1511.09 722.614 1547.94 685.1 1556.66 643.567C1563.93 608.436 1551.65 574.495 1547.61 537.13C1539.37 459.87 1561.67 364.598 1609.66 277.661C1622.92 253.397 1638.27 229.876 1655.72 207.696C1734.74 106.469 1854.97 34.121 1975.84 15.9597" stroke="#699CD9" stroke-miterlimit="10"/>
<path d="M-147.365 1101.62C-110.683 1035.97 -36.1874 992.95 42.1865 980.892C75.96 975.681 110.865 975.83 145.123 981.04C189.4 987.739 232.385 1002.03 274.884 1016.47C361.5 1046.09 445.53 1076.16 532.953 1061.43C601.308 1049.96 668.693 1039.54 732.039 1016.62C781.325 998.755 816.553 967.941 843.701 928.492C855.659 911.075 866.002 892.169 875.859 872.073C895.089 832.326 912.218 790.049 936.296 755.066C963.767 715.171 1000.93 684.951 1059.59 678.997C1075.27 677.359 1090.3 677.657 1105.16 680.039C1167.7 689.566 1222.16 731.694 1286.47 754.619C1315.72 765.04 1346.59 770.548 1376.16 771.143C1409.29 771.739 1441.12 766.082 1468.43 754.471C1520.14 732.439 1555.37 690.013 1561.02 645.205C1565.71 606.947 1550.04 570.922 1543.25 531.473C1528.71 449.896 1547.61 350.604 1594.47 261.435C1607.56 236.575 1622.75 212.459 1640.21 189.683C1719.87 86.2232 1844.46 14.6199 1969.86 0.775635" stroke="#5FA1DB" stroke-miterlimit="10"/>
<path d="M-152.052 1094.62C-113.915 1029.42 -39.7428 986.4 38.7927 974.044C72.7278 968.685 107.632 968.834 141.891 974.193C186.33 981.189 229.152 995.927 271.652 1011.41C358.106 1042.82 441.974 1076.31 530.205 1063.36C599.207 1053.24 667.562 1045.05 732.361 1023.76C783.102 1007.09 818.977 976.872 846.771 937.721C859.053 920.453 869.718 901.547 879.737 881.451C899.451 841.704 917.065 799.427 941.79 764.742C970.069 725.145 1008.04 695.67 1067.83 691.353C1083.83 690.162 1099.02 691.055 1113.89 693.883C1176.59 705.792 1230.24 750.154 1294.55 773.078C1323.8 783.499 1354.83 788.56 1384.72 788.411C1418.17 788.114 1450.33 781.117 1477.48 767.719C1529.03 742.264 1562.48 695.223 1564.9 646.694C1567 605.458 1548.1 567.052 1538.4 525.519C1517.88 439.625 1533.07 336.462 1578.8 244.763C1591.57 219.158 1606.76 194.447 1624.37 171.373C1704.68 65.8289 1833.64 -5.03 1963.56 -14.855" stroke="#55A6DC" stroke-miterlimit="10"/>
<path d="M-156.738 1087.48C-117.147 1022.57 -43.4596 979.552 35.3991 967.047C69.3342 961.688 104.239 961.688 138.659 967.196C183.098 974.341 225.92 989.823 268.258 1006.05C354.551 1039.39 438.257 1076.16 527.135 1065C596.783 1056.22 666.107 1050.26 732.361 1030.61C784.395 1015.13 820.916 985.506 849.518 946.504C862.123 929.385 873.111 910.628 883.292 890.531C903.653 850.785 921.752 808.508 947.122 774.12C976.048 734.82 1014.83 706.09 1076.08 703.559C1092.24 702.964 1107.59 704.452 1122.62 707.727C1185.64 722.018 1238.16 768.612 1302.47 791.537C1331.88 802.107 1363.07 806.721 1393.13 805.679C1426.9 804.488 1459.22 796.003 1486.37 780.819C1537.75 752.089 1569.43 700.135 1568.78 648.182C1568.3 603.97 1546.32 563.33 1533.55 519.564C1507.05 429.204 1518.36 322.32 1563.29 228.239C1575.73 201.89 1590.92 176.732 1608.7 153.063C1689.65 45.2856 1823.13 -24.829 1957.42 -30.3369" stroke="#4BABDE" stroke-miterlimit="10"/>
<path d="M-161.263 1080.48C-120.379 1016.02 -46.853 973.002 32.0057 960.2C65.9408 954.692 101.007 954.692 135.589 960.348C180.027 967.792 222.85 983.72 265.027 1000.99C351.157 1036.12 434.702 1076.46 524.388 1066.93C594.682 1059.49 665.138 1055.62 732.523 1037.76C785.85 1023.62 823.178 994.438 852.589 955.734C865.355 938.763 876.667 920.006 887.332 899.91C908.178 860.312 926.761 817.886 952.778 783.797C982.512 744.794 1021.94 716.808 1084.64 715.915C1101.12 715.766 1116.64 717.85 1131.5 721.721C1194.69 738.393 1246.4 787.22 1310.71 810.294C1340.12 820.863 1371.63 825.032 1402.01 823.245C1436.11 821.161 1468.75 811.336 1495.74 794.366C1546.97 762.36 1576.86 705.643 1573.14 649.968C1569.91 602.779 1544.87 559.906 1529.19 514.056C1496.71 419.23 1504.3 308.625 1548.1 212.013C1560.38 185.068 1575.41 159.166 1593.18 135.199C1674.79 25.338 1812.63 -44.1812 1951.6 -45.3721" stroke="#41B1DF" stroke-miterlimit="10"/>
<path d="M-165.949 1073.48C-123.611 1009.47 -50.4083 966.452 28.612 953.501C62.7087 947.844 97.775 947.844 132.357 953.65C176.795 961.242 219.618 977.766 261.633 995.927C347.602 1032.99 430.985 1076.61 521.317 1068.87C592.258 1062.77 663.683 1061.28 732.523 1044.9C787.142 1032.1 825.279 1003.37 855.336 964.963C868.425 948.142 880.06 929.385 890.887 909.288C912.217 869.691 931.447 827.265 957.949 793.473C988.329 754.768 1028.57 727.377 1092.72 728.419C1109.36 728.717 1125.04 731.397 1140.07 735.863C1203.57 754.917 1254.32 805.828 1318.63 829.051C1348.2 839.62 1379.88 843.491 1410.42 840.811C1444.68 837.834 1477.64 826.52 1504.63 807.764C1555.69 772.334 1583.81 711.002 1577.02 651.755C1571.2 601.588 1542.93 556.333 1524.34 508.399C1485.72 409.257 1489.76 294.632 1532.58 195.787C1544.54 168.098 1559.57 141.749 1577.51 117.187C1659.76 5.09268 1801.96 -63.5333 1945.46 -60.5561" stroke="#37B6E1" stroke-miterlimit="10"/>
<path d="M-170.474 1066.34C-107.774 975.235 14.5535 926.408 129.286 946.653C264.542 970.471 382.669 1079.59 518.571 1070.51C590.157 1065.74 662.552 1066.34 732.846 1051.75C813.321 1035.08 858.245 984.315 894.765 918.369C941.628 833.666 978.31 735.416 1101.12 740.626C1189.84 744.348 1247.37 818.779 1326.71 847.51C1389.41 870.137 1462.94 859.717 1513.84 820.864C1564.74 782.01 1591.08 716.213 1581.22 653.243C1572.82 600.099 1541.31 552.612 1519.82 502.445C1462.77 369.957 1479.1 213.055 1561.99 98.8765C1644.89 -15.3017 1791.62 -83.3322 1939.48 -76.0379" stroke="#2DBBE2" stroke-miterlimit="10"/>
<path d="M-163.363 1079.44C-99.6946 995.48 21.8254 950.077 135.75 968.685C192.794 977.914 246.928 1001.43 300.416 1024.06C355.197 1047.43 409.009 1070.06 465.244 1076.76C483.343 1078.84 501.765 1079.44 520.348 1077.65C590.319 1070.95 661.098 1069.32 731.069 1054.13C810.412 1037.01 856.144 988.335 893.957 926.11C902.684 911.819 911.087 897.23 919.651 882.791C944.86 840.365 971.685 800.171 1014.02 777.991C1037.78 765.486 1066.22 758.49 1101.77 759.681C1189.35 762.36 1246.72 830.54 1323.48 855.102C1333.66 858.377 1344.16 860.759 1354.67 862.247C1407.19 869.691 1462.61 855.697 1503.17 822.799C1551.81 783.35 1577.02 718.148 1567.81 655.774C1560.05 602.928 1530.64 555.143 1510.77 504.976C1476.51 418.486 1472.63 322.023 1497.36 234.491C1510.61 187.748 1532.1 143.535 1561.19 104.533C1614.51 33.3766 1692.89 -19.321 1780.96 -47.1584C1831.54 -63.0868 1885.35 -70.6788 1939.32 -68.5948" stroke="#33B4E3" stroke-miterlimit="10"/>
<path d="M-156.092 1092.54C-91.6151 1015.73 29.2585 973.746 142.537 990.717C199.419 999.202 253.23 1020.49 306.072 1040.73C360.207 1061.43 413.048 1081.23 468.314 1085.69C486.09 1087.18 504.027 1087.03 522.287 1084.8C590.804 1076.16 659.805 1072.44 729.291 1056.66C807.342 1039.25 854.043 992.354 892.988 933.851C902.037 920.304 910.763 906.758 919.651 893.211C945.668 853.613 972.816 816.547 1015.15 796.003C1039.07 784.541 1067.35 777.842 1102.25 778.586C1188.71 780.373 1245.91 842.151 1320.09 862.545C1329.94 865.225 1339.96 867.011 1350.14 868.053C1400.72 873.115 1453.72 857.782 1492.35 824.436C1538.72 784.392 1562.8 719.934 1554.4 658.156C1547.45 605.607 1519.82 557.673 1501.88 507.357C1470.53 420.868 1468.75 324.851 1494.77 238.361C1508.83 191.916 1530.97 148.299 1560.7 109.892C1614.84 39.9266 1693.37 -11.5801 1781.6 -39.4175C1832.18 -55.3459 1885.67 -63.0868 1939.48 -61.3004" stroke="#38ADE5" stroke-miterlimit="10"/>
<path d="M-148.82 1105.64C-83.374 1035.97 36.6915 997.266 149.162 1012.6C205.721 1020.19 259.37 1039.54 311.727 1057.11C365.377 1075.27 417.249 1091.94 471.384 1094.33C488.836 1095.07 506.45 1094.33 524.226 1091.65C591.288 1081.08 658.512 1074.97 727.675 1058.75C804.594 1040.73 852.103 996.076 892.341 941.294C901.552 928.64 910.763 915.987 919.812 903.483C946.637 866.862 974.108 832.624 1016.45 813.867C1040.36 803.298 1068.64 796.896 1102.9 797.343C1188.22 798.087 1245.1 853.762 1317.01 869.839C1326.55 871.924 1336.24 873.263 1346.1 873.859C1394.74 876.538 1445.32 859.866 1482.17 826.074C1526.44 785.583 1549.23 721.721 1541.63 660.538C1535.33 608.138 1509.8 560.055 1493.48 509.739C1465.2 423.25 1465.2 327.679 1492.67 242.232C1507.54 196.084 1530.32 153.063 1560.54 115.4C1615.48 46.6255 1694.18 -3.6903 1782.41 -31.5277C1832.83 -47.3072 1886.32 -55.197 1939.97 -54.0061" stroke="#3EA6E6" stroke-miterlimit="10"/>
<path d="M-141.549 1118.74C-75.133 1056.07 44.1246 1020.94 155.949 1034.63C212.346 1041.33 265.672 1058.6 317.545 1073.78C370.71 1089.26 421.451 1102.96 474.616 1103.26C491.745 1103.41 508.874 1102.07 526.326 1098.79C591.934 1086.44 657.38 1078.1 726.22 1061.28C801.847 1042.82 850.326 1000.24 891.694 949.035C901.228 937.274 910.762 925.514 920.135 913.903C947.768 880.111 975.562 848.85 1017.9 831.879C1041.98 822.203 1070.1 816.546 1103.71 816.397C1187.9 816.1 1244.46 865.522 1313.94 877.431C1323.15 879.069 1332.53 879.813 1341.9 879.813C1388.6 880.111 1436.59 862.098 1471.66 827.86C1513.68 786.774 1535.17 723.656 1528.54 662.919C1522.89 610.817 1499.46 562.437 1484.91 512.121C1459.54 425.482 1461.64 330.508 1490.57 245.953C1506.24 200.103 1529.84 157.826 1560.38 120.61C1616.13 53.0265 1694.99 3.75273 1783.38 -23.787C1833.8 -39.5665 1886.96 -47.6051 1940.45 -46.7119" stroke="#43A0E8" stroke-miterlimit="10"/>
<path d="M-134.438 1131.69C-67.0521 1076.16 51.3976 1044.46 162.414 1056.37C218.488 1062.32 271.814 1077.5 323.04 1090.01C375.559 1102.96 425.33 1113.68 477.526 1111.74C494.331 1111.15 511.138 1109.21 528.105 1105.49C592.259 1091.2 655.927 1080.63 724.282 1063.21C798.778 1044.31 848.064 1003.67 890.726 956.329C900.583 945.313 910.441 934.595 920.136 924.026C948.416 893.062 976.856 864.927 1019.19 849.594C1043.43 840.811 1071.23 835.303 1104.36 835.006C1187.42 834.112 1243.81 876.836 1310.71 884.577C1319.6 885.619 1328.65 885.768 1337.54 885.47C1382.14 883.535 1427.87 864.034 1461 829.349C1500.91 787.667 1521.11 725.144 1515.29 665.153C1510.28 613.348 1488.95 564.819 1476.03 514.354C1453.73 427.716 1457.77 333.187 1487.98 249.675C1504.47 204.123 1528.71 162.441 1559.73 125.97C1616.29 59.5766 1695.31 11.4938 1783.87 -16.0459C1834.12 -31.6766 1887.13 -39.8641 1940.45 -39.5664" stroke="#4999E9" stroke-miterlimit="10"/>
<path d="M-127.166 1144.79C-58.811 1096.41 58.8307 1067.98 169.039 1078.4C224.789 1083.46 277.955 1096.56 328.696 1106.68C380.729 1116.95 429.37 1124.69 480.596 1120.67C497.078 1119.33 513.399 1116.95 530.044 1112.64C592.743 1096.41 654.634 1083.61 722.666 1065.74C795.869 1046.39 846.125 1007.84 889.917 964.07C900.098 953.947 910.279 944.122 920.136 934.446C949.223 906.311 977.987 881.153 1020.33 867.607C1044.56 859.717 1072.36 854.655 1104.84 853.911C1186.93 851.976 1243 888.447 1307.32 892.02C1315.88 892.467 1324.45 892.169 1333.17 891.276C1375.84 886.959 1419.14 866.118 1450.49 830.986C1488.14 788.709 1507.21 726.931 1502.2 667.534C1497.84 616.028 1478.45 567.2 1467.46 516.736C1448.07 430.097 1454.37 336.016 1485.72 253.545C1503.01 208.291 1527.9 167.205 1559.41 131.329C1616.61 66.1266 1695.8 19.2346 1784.51 -8.30507C1834.77 -23.9357 1887.61 -32.272 1940.77 -32.4209" stroke="#4F92EA" stroke-miterlimit="10"/>
<path d="M-119.895 1157.89C-50.7316 1116.65 66.4253 1091.65 175.826 1100.43C231.415 1104.6 284.256 1115.76 334.513 1123.2C386.062 1130.95 433.732 1135.56 483.827 1129.46C499.987 1127.52 515.985 1124.4 532.144 1119.63C593.389 1101.62 653.664 1086.44 721.05 1067.98C793.121 1048.33 844.186 1011.56 889.271 971.662C899.775 962.284 910.278 953.501 920.459 944.867C950.354 919.709 979.603 897.528 1021.78 885.619C1046.18 878.771 1073.81 874.008 1105.65 872.817C1186.61 869.988 1242.36 900.208 1304.25 899.463C1312.49 899.314 1320.73 898.57 1328.97 897.23C1369.69 890.531 1410.42 868.351 1439.99 832.773C1475.38 789.9 1493.32 728.866 1489.11 669.916C1485.4 618.558 1468.27 569.582 1458.73 518.969C1442.57 432.33 1450.65 338.695 1483.46 257.267C1501.56 212.31 1527.09 171.968 1559.09 136.688C1617.1 72.6765 1696.44 26.9755 1785.32 -0.41534C1835.41 -15.8971 1888.09 -24.3823 1941.1 -24.9778" stroke="#548BEC" stroke-miterlimit="10"/>
<path d="M-112.623 1170.99C-42.4905 1136.9 73.8585 1115.46 182.451 1122.31C237.717 1125.88 290.397 1134.67 340.168 1139.73C391.071 1144.79 437.772 1146.43 486.897 1138.24C502.734 1135.56 518.247 1131.84 534.083 1126.63C593.712 1106.68 652.371 1089.41 719.433 1070.36C790.374 1050.26 842.408 1015.58 888.624 979.254C899.451 970.769 910.278 962.879 920.782 955.138C951.323 932.808 981.057 913.754 1023.23 903.482C1047.8 897.528 1075.27 893.211 1106.45 891.722C1186.28 888.001 1241.87 911.819 1301.18 906.906C1309.1 906.311 1317.01 904.971 1324.77 903.185C1363.55 894.104 1401.85 870.584 1429.48 834.559C1462.77 791.091 1479.42 730.652 1475.86 672.447C1472.79 621.387 1457.76 572.262 1450.01 521.499C1436.76 434.861 1446.94 341.672 1481.03 261.286C1499.94 216.627 1526.28 176.881 1558.6 142.344C1617.42 79.5242 1696.93 35.0141 1785.8 7.62322C1835.74 -7.85856 1888.42 -16.3438 1941.1 -17.5347" stroke="#5A84ED" stroke-miterlimit="10"/>
<path d="M-105.513 1184.09C-34.4106 1157.15 81.1303 1139.13 189.076 1144.34C244.18 1147.02 296.537 1153.87 345.824 1156.25C396.242 1158.78 441.812 1157.44 489.967 1147.02C505.319 1143.75 520.671 1139.43 536.022 1133.63C594.197 1111.74 651.078 1092.24 717.656 1072.74C787.304 1052.2 840.307 1019.6 887.655 986.995C898.805 979.403 909.955 972.406 920.782 965.559C952.131 946.057 982.35 929.98 1024.36 921.495C1049.09 916.434 1076.24 912.414 1106.94 910.628C1185.64 905.864 1241.06 923.43 1297.78 914.35C1305.38 913.159 1312.97 911.223 1320.25 908.99C1357.09 897.528 1392.96 872.668 1418.66 836.196C1449.68 792.282 1465.2 732.439 1462.45 674.68C1460.19 623.917 1446.94 574.495 1441.12 523.732C1430.94 437.094 1443.06 344.352 1478.61 265.008C1498.32 220.647 1525.31 181.496 1558.12 147.555C1617.74 85.9254 1697.41 42.6062 1786.45 15.2153C1836.38 -0.117575 1888.74 -8.90053 1941.42 -10.3892" stroke="#607DEE" stroke-miterlimit="10"/>
<path d="M-98.2402 1197.19C-26.1685 1177.24 88.5644 1162.8 195.702 1166.38C250.483 1168.16 302.679 1172.93 351.481 1172.93C401.414 1172.93 445.853 1168.46 493.038 1155.95C508.067 1151.94 522.934 1147.02 537.962 1140.77C594.682 1116.95 649.786 1095.37 716.041 1075.12C784.557 1054.28 838.53 1023.47 887.009 994.736C898.482 987.888 909.956 981.934 920.944 976.128C952.94 959.455 983.805 946.504 1025.66 939.656C1050.54 935.637 1077.53 931.916 1107.59 929.683C1185.15 924.026 1240.42 935.042 1294.55 921.942C1301.83 920.155 1308.94 917.773 1316.05 915.094C1350.95 901.398 1384.24 875.05 1408.32 838.132C1437.24 793.622 1451.46 734.523 1449.52 677.359C1447.91 626.895 1436.76 577.323 1432.56 526.412C1425.28 439.773 1439.67 347.478 1476.35 269.176C1497.03 225.261 1524.5 186.557 1557.95 153.36C1618.39 92.922 1698.22 50.7937 1787.42 23.4028C1837.19 8.06991 1889.39 -0.713033 1941.91 -2.79712" stroke="#6576F0" stroke-miterlimit="10"/>
<path d="M-90.9688 1210.14C-17.9275 1197.34 95.9974 1186.17 202.489 1188.11C257.108 1189.15 308.981 1191.83 357.136 1189.15C406.423 1186.47 449.892 1179.03 496.108 1164.44C510.814 1159.68 525.357 1154.17 539.901 1147.47C595.167 1121.72 648.493 1097.9 714.424 1077.21C781.81 1055.92 836.752 1027.19 886.201 1002.03C897.997 996.075 909.632 990.865 921.105 986.102C953.909 972.257 985.097 962.432 1026.95 957.222C1052 954.096 1078.82 950.821 1108.39 948.29C1184.83 941.591 1239.77 946.355 1291.48 929.087C1298.43 926.705 1305.22 923.877 1311.84 920.602C1344.81 904.525 1375.67 876.836 1397.81 839.471C1424.48 794.366 1437.57 735.862 1436.43 679.443C1435.46 629.127 1426.41 579.407 1423.99 528.496C1419.79 441.709 1436.11 350.009 1474.09 272.749C1495.58 229.132 1523.86 191.172 1557.63 158.422C1618.88 99.1741 1698.87 58.2367 1788.07 30.9947C1837.84 15.8106 1889.87 6.72996 1942.07 4.34814" stroke="#6B70F1" stroke-miterlimit="10"/>
<path d="M-83.6973 1223.24C-9.84802 1217.58 103.431 1209.84 209.114 1210.14C263.41 1210.29 315.121 1211.03 362.792 1205.68C411.594 1200.46 454.093 1190.04 499.178 1173.22C513.561 1167.86 527.781 1161.76 541.84 1154.47C595.651 1126.78 647.2 1100.88 712.646 1079.44C778.739 1057.85 834.651 1031.06 885.392 1009.62C897.512 1004.56 909.47 1000.24 921.266 996.522C954.717 985.506 986.551 978.808 1028.24 975.384C1053.29 973.3 1080.12 970.322 1109.04 967.345C1184.34 959.753 1239.13 958.116 1288.25 936.679C1294.88 933.702 1301.34 930.427 1307.48 926.705C1338.51 908.246 1366.79 879.218 1387.15 841.407C1411.55 795.706 1423.51 737.947 1423.18 681.974C1422.86 631.956 1415.91 582.087 1415.1 531.027C1413.81 444.239 1432.39 352.986 1471.66 276.768C1493.96 233.449 1522.89 196.084 1557.15 164.079C1619.2 105.873 1699.35 66.2755 1788.71 39.0335C1838.32 23.8495 1890.19 14.7688 1942.39 11.7915" stroke="#7069F3" stroke-miterlimit="10"/>
<path d="M-76.5859 1236.34C-1.76712 1237.83 110.704 1233.36 215.579 1232.17C269.552 1231.43 321.101 1230.09 368.287 1222.35C416.604 1214.46 457.973 1201.06 502.088 1182.15C516.147 1176.05 529.883 1169.35 543.457 1161.61C595.814 1131.99 645.585 1103.85 710.709 1081.97C775.67 1060.09 832.552 1035.23 884.262 1017.36C896.705 1013.05 908.986 1009.77 920.945 1006.94C955.041 998.755 987.522 995.183 1029.05 993.396C1054.26 992.205 1080.92 989.526 1109.2 986.251C1183.38 977.617 1238 969.727 1284.53 943.974C1290.84 940.55 1296.98 936.53 1302.8 932.362C1331.88 911.521 1357.74 881.153 1376.32 842.895C1398.62 796.599 1409.29 739.584 1409.77 684.207C1410.26 634.487 1405.09 584.32 1406.22 533.26C1407.99 446.472 1428.52 355.666 1469.08 280.49C1492.19 237.468 1521.76 200.699 1556.5 169.289C1619.36 112.274 1699.67 73.8675 1789.2 46.6255C1838.81 31.5903 1890.36 22.2119 1942.39 18.7881" stroke="#7662F4" stroke-miterlimit="10"/>
<path d="M-69.3145 1249.44C6.47394 1258.08 118.298 1257.03 222.366 1254.06C276.177 1252.57 327.403 1249.14 374.104 1238.72C421.775 1228.3 462.174 1211.93 505.32 1190.79C519.056 1184.09 532.468 1176.65 545.557 1168.46C596.298 1136.9 644.454 1106.68 709.092 1084.05C772.923 1061.72 830.774 1038.95 883.616 1024.81C896.382 1021.38 908.986 1019 921.267 1017.07C956.172 1011.71 988.976 1010.22 1030.51 1011.11C1055.88 1011.56 1082.22 1008.58 1110.01 1004.86C1183.05 995.331 1237.35 980.892 1281.46 951.119C1287.44 947.1 1293.1 942.634 1298.59 938.019C1325.74 914.796 1349.17 883.088 1365.82 844.384C1385.85 797.492 1395.39 741.073 1396.68 686.44C1397.81 637.017 1394.74 586.553 1397.49 535.493C1402.18 448.705 1424.96 358.345 1466.65 284.062C1490.73 241.339 1520.79 205.314 1556.02 174.499C1619.68 118.675 1700.16 81.4594 1789.68 54.3663C1839.13 39.3311 1890.68 29.9527 1942.39 26.0823" stroke="#7C5BF5" stroke-miterlimit="10"/>
<path d="M-62.043 1262.54C14.715 1278.32 125.731 1280.4 228.991 1276.09C282.479 1273.56 333.705 1268.2 379.76 1255.4C426.946 1242.3 466.213 1222.94 508.39 1199.72C521.802 1192.28 534.73 1184.39 547.496 1175.6C596.783 1141.96 643.322 1109.81 707.476 1086.58C770.014 1063.96 828.996 1043.27 882.969 1032.55C896.058 1030.02 908.986 1028.53 921.59 1027.63C957.141 1025.1 990.592 1027.93 1032.12 1029.27C1057.65 1030.17 1083.83 1027.93 1110.98 1024.06C1182.89 1013.49 1237.03 992.8 1278.56 958.86C1284.21 954.245 1289.54 949.332 1294.55 944.271C1319.76 918.815 1340.61 885.619 1355.47 846.468C1373.41 798.98 1381.65 743.306 1383.59 689.119C1385.53 639.846 1384.24 589.381 1388.93 538.023C1396.36 451.236 1421.41 361.322 1464.55 288.082C1489.44 245.656 1520.3 210.226 1555.85 180.156C1620.33 125.523 1700.8 89.3491 1790.65 62.4049C1840.1 47.5185 1891.33 37.8424 1943.04 33.5254" stroke="#8154F7" stroke-miterlimit="10"/>
<path d="M-54.9336 1275.64C22.7939 1298.57 133.002 1304.07 235.615 1297.97C288.942 1294.7 339.845 1287.25 385.415 1271.77C432.116 1256.14 470.414 1233.81 511.459 1208.21C524.549 1200.17 537.153 1191.53 549.434 1182.3C597.267 1146.73 642.029 1112.49 705.859 1088.52C767.265 1065.59 827.217 1046.84 882.16 1039.84C895.572 1038.2 908.823 1037.76 921.751 1037.61C957.948 1037.16 992.045 1043.86 1033.41 1046.84C1059.11 1048.62 1085.12 1046.84 1111.63 1042.52C1182.4 1030.91 1236.22 1003.82 1275.32 965.856C1280.65 960.646 1285.66 955.138 1290.35 949.63C1313.46 921.793 1332.04 887.257 1345.13 847.659C1360.81 799.725 1367.92 744.646 1370.66 691.055C1373.25 642.079 1374.06 591.316 1380.36 539.959C1390.86 453.171 1418.01 363.704 1462.29 291.506C1487.98 249.526 1519.49 214.543 1555.53 185.068C1620.65 131.626 1701.45 96.6436 1791.46 69.6993C1840.75 54.9619 1891.81 45.1369 1943.36 40.3733" stroke="#874DF8" stroke-miterlimit="10"/>
<path d="M-47.6611 1288.74C30.8744 1318.66 140.436 1327.74 242.242 1320C295.245 1315.83 345.986 1306.31 391.071 1288.44C437.126 1270.13 474.455 1244.83 514.53 1217.14C527.296 1208.35 539.416 1199.13 551.374 1189.45C597.752 1151.94 640.737 1115.46 704.082 1091.05C764.357 1067.68 825.279 1051.16 881.353 1047.58C895.088 1046.69 908.662 1047.14 921.752 1048.18C958.757 1051.16 993.177 1060.38 1034.55 1065C1060.4 1067.83 1086.26 1066.34 1112.11 1061.58C1181.76 1048.92 1235.41 1015.58 1271.93 973.449C1276.94 967.643 1281.63 961.688 1285.83 955.734C1307 925.514 1323.16 889.638 1334.31 849.594C1347.72 801.065 1353.7 746.581 1357.25 693.734C1360.48 645.056 1363.39 594.145 1371.47 542.638C1384.88 455.851 1414.3 366.979 1459.7 295.674C1486.37 253.992 1518.36 219.605 1555.05 190.874C1620.98 138.623 1701.94 104.831 1791.94 77.8868C1841.23 63.1494 1892.13 53.1755 1943.36 47.9653" stroke="#8D46F9" stroke-miterlimit="10"/>
<path d="M-40.3887 1301.69C39.1164 1338.76 147.87 1351.11 248.868 1341.89C301.548 1336.82 352.127 1325.36 396.728 1304.82C442.298 1283.98 478.657 1255.69 517.601 1225.77C530.044 1216.39 541.679 1206.42 553.314 1196.3C598.076 1156.7 639.444 1118.29 702.467 1093.13C761.611 1069.47 823.34 1054.28 880.545 1055.03C894.604 1055.17 908.501 1056.22 921.914 1058.3C959.566 1064.11 994.632 1076.61 1035.84 1082.71C1061.69 1086.58 1087.39 1085.24 1112.76 1080.18C1181.27 1066.64 1234.6 1026.74 1268.7 980.594C1273.38 974.342 1277.59 967.792 1281.46 961.242C1300.69 928.641 1314.27 891.425 1323.64 850.934C1334.95 801.809 1339.64 748.069 1344 695.669C1348.04 647.289 1352.73 596.08 1362.75 544.573C1379.23 457.786 1410.74 369.361 1457.44 299.098C1484.91 257.714 1517.72 224.071 1554.72 195.787C1621.46 144.726 1702.58 112.125 1792.75 85.33C1841.88 70.7414 1892.62 60.6187 1943.84 54.813" stroke="#9240FB" stroke-miterlimit="10"/>
<path d="M-33.1172 1314.79C47.3575 1359 155.303 1374.78 255.654 1363.77C308.173 1357.96 358.429 1344.27 402.545 1321.34C447.63 1297.82 482.858 1266.56 520.833 1234.55C532.791 1224.43 544.264 1214.01 555.414 1203.29C598.722 1161.76 638.475 1121.27 700.851 1095.52C758.863 1071.55 821.563 1059.04 879.899 1062.77C894.281 1063.66 908.339 1065.74 922.237 1068.87C960.696 1077.36 996.086 1093.13 1037.29 1100.88C1063.31 1105.79 1088.84 1104.75 1113.57 1099.39C1180.95 1084.8 1233.95 1038.65 1265.63 988.335C1269.99 981.487 1273.87 974.491 1277.26 967.494C1294.55 932.511 1305.7 893.955 1313.14 853.018C1322.19 803.298 1325.9 750.302 1330.91 698.498C1335.76 650.266 1342.39 598.908 1354.02 547.402C1373.41 460.614 1407.19 372.785 1455.02 303.415C1483.46 262.477 1516.75 229.281 1554.24 201.741C1621.78 151.872 1703.07 120.462 1793.4 93.6662C1842.36 79.0776 1892.94 68.9549 1944.01 62.7026" stroke="#9839FC" stroke-miterlimit="10"/>
<path d="M-26.0078 1327.89C55.4364 1379.25 162.574 1398.45 262.117 1385.8C314.313 1379.1 364.407 1363.47 408.038 1337.87C452.477 1311.81 486.735 1277.58 523.741 1243.34C535.376 1232.62 546.364 1221.45 557.191 1210.29C598.883 1166.82 637.019 1124.4 699.072 1097.9C755.954 1073.78 819.461 1063.21 878.928 1070.36C893.633 1072.14 908.015 1075.12 922.074 1079.14C961.18 1090.31 997.216 1109.51 1038.26 1118.74C1064.44 1124.69 1089.81 1123.8 1113.89 1118.14C1180.14 1102.36 1232.82 1049.96 1262.07 995.629C1266.11 988.186 1269.67 980.594 1272.74 973.151C1288.09 935.935 1296.81 895.891 1302.47 854.507C1309.42 804.191 1311.84 751.791 1317.66 700.731C1323.15 652.797 1331.88 601.29 1345.29 549.635C1367.76 462.698 1403.63 375.464 1452.59 307.136C1481.84 266.496 1515.78 233.895 1553.75 206.951C1622.11 158.273 1703.55 128.054 1793.88 101.258C1842.85 86.8185 1893.26 76.3981 1944.01 69.6992" stroke="#9D32FE" stroke-miterlimit="10"/>
<path d="M-18.7354 1340.99C106.986 1430.16 288.943 1435.97 413.695 1354.39C457.649 1325.66 490.776 1288.44 526.812 1252.12C582.239 1196.15 619.891 1134.22 697.295 1100.13C766.781 1069.47 850.003 1063.96 922.236 1089.41C962.151 1103.41 998.51 1125.74 1039.56 1136.6C1148.63 1165.33 1239.29 1065.3 1268.37 979.105C1298.11 891.276 1292.29 795.408 1304.41 703.261C1321.05 575.686 1369.86 418.486 1450.17 311.007C1534.68 198.019 1653.78 150.681 1794.53 109.297C1843.33 94.8571 1893.59 84.4367 1944.33 77.2913" stroke="#A32BFF" stroke-miterlimit="10"/>
</g>
</g>
<g opacity="0.1">
<mask id="mask4_239_1062" style="mask-type:luminance" maskUnits="userSpaceOnUse" x="688" y="-212" width="1940" height="1191">
<path d="M2628 -212H688.852V978.906H2628V-212Z" fill="white"/>
</mask>
<g mask="url(#mask4_239_1062)">
<path d="M1868.5 791.338C1870.28 791.338 1871.73 790.005 1871.73 788.361C1871.73 786.717 1870.28 785.384 1868.5 785.384C1866.71 785.384 1865.27 786.717 1865.27 788.361C1865.27 790.005 1866.71 791.338 1868.5 791.338Z" fill="#2B3640"/>
<path d="M1868.5 757.1C1870.28 757.1 1871.73 755.767 1871.73 754.123C1871.73 752.478 1870.28 751.146 1868.5 751.146C1866.71 751.146 1865.27 752.478 1865.27 754.123C1865.27 755.767 1866.71 757.1 1868.5 757.1Z" fill="#2B3640"/>
<path d="M1868.5 722.861C1870.28 722.861 1871.73 721.528 1871.73 719.884C1871.73 718.24 1870.28 716.907 1868.5 716.907C1866.71 716.907 1865.27 718.24 1865.27 719.884C1865.27 721.528 1866.71 722.861 1868.5 722.861Z" fill="#2B3640"/>
<path d="M1868.5 688.623C1870.28 688.623 1871.73 687.29 1871.73 685.646C1871.73 684.001 1870.28 682.668 1868.5 682.668C1866.71 682.668 1865.27 684.001 1865.27 685.646C1865.27 687.29 1866.71 688.623 1868.5 688.623Z" fill="#2B3640"/>
<path d="M1868.5 654.384C1870.28 654.384 1871.73 653.051 1871.73 651.407C1871.73 649.763 1870.28 648.43 1868.5 648.43C1866.71 648.43 1865.27 649.763 1865.27 651.407C1865.27 653.051 1866.71 654.384 1868.5 654.384Z" fill="#2B3640"/>
<path d="M1908.9 791.338C1910.68 791.338 1912.13 790.005 1912.13 788.361C1912.13 786.717 1910.68 785.384 1908.9 785.384C1907.11 785.384 1905.67 786.717 1905.67 788.361C1905.67 790.005 1907.11 791.338 1908.9 791.338Z" fill="#2B3640"/>
<path d="M1908.9 757.1C1910.68 757.1 1912.13 755.767 1912.13 754.123C1912.13 752.478 1910.68 751.146 1908.9 751.146C1907.11 751.146 1905.67 752.478 1905.67 754.123C1905.67 755.767 1907.11 757.1 1908.9 757.1Z" fill="#2B3640"/>
<path d="M1908.9 722.861C1910.68 722.861 1912.13 721.528 1912.13 719.884C1912.13 718.24 1910.68 716.907 1908.9 716.907C1907.11 716.907 1905.67 718.24 1905.67 719.884C1905.67 721.528 1907.11 722.861 1908.9 722.861Z" fill="#2B3640"/>
<path d="M1908.9 688.623C1910.68 688.623 1912.13 687.29 1912.13 685.646C1912.13 684.001 1910.68 682.668 1908.9 682.668C1907.11 682.668 1905.67 684.001 1905.67 685.646C1905.67 687.29 1907.11 688.623 1908.9 688.623Z" fill="#2B3640"/>
<path d="M1908.9 654.384C1910.68 654.384 1912.13 653.051 1912.13 651.407C1912.13 649.763 1910.68 648.43 1908.9 648.43C1907.11 648.43 1905.67 649.763 1905.67 651.407C1905.67 653.051 1907.11 654.384 1908.9 654.384Z" fill="#2B3640"/>
</g>
</g>
</g>
</svg>
