<svg width="35" height="35" viewBox="0 0 35 35" fill="none" xmlns="http://www.w3.org/2000/svg">
<circle cx="17.15" cy="17.5001" r="16.8" stroke="#CCCCCC" stroke-width="0.7"/>
<path d="M25 19C25.5523 19 26 18.5523 26 18C26 17.4477 25.5523 17 25 17V19ZM9.29289 17.2929C8.90237 17.6834 8.90237 18.3166 9.29289 18.7071L15.6569 25.0711C16.0474 25.4616 16.6805 25.4616 17.0711 25.0711C17.4616 24.6805 17.4616 24.0474 17.0711 23.6569L11.4142 18L17.0711 12.3431C17.4616 11.9526 17.4616 11.3195 17.0711 10.9289C16.6805 10.5384 16.0474 10.5384 15.6569 10.9289L9.29289 17.2929ZM25 17L10 17V19H25V17Z" fill="white"/>
</svg>
