<svg width="26" height="21" viewBox="0 0 26 21" fill="none" xmlns="http://www.w3.org/2000/svg">
<path d="M0 6.04254L0 6.18698C0.00460613 6.68425 0.170098 7.16586 0.470491 7.55621C0.770884 7.94656 1.18917 8.22354 1.65967 8.34365C2.11774 8.47229 2.52192 8.75173 2.81001 9.13899C3.0981 9.52625 3.25415 9.99987 3.25415 10.487C3.25415 10.9741 3.0981 11.4477 2.81001 11.835C2.52192 12.2222 2.11774 12.5017 1.65967 12.6303C1.18917 12.7504 0.770884 13.0274 0.470491 13.4178C0.170098 13.8081 0.00460613 14.2897 0 14.787L0 14.9314C0.00172018 16.4043 0.572955 17.8164 1.5884 18.8579C2.60385 19.8993 3.98061 20.4852 5.41667 20.487H22.75C23.612 20.487 24.4386 20.1358 25.0481 19.5107C25.6576 18.8856 26 18.0377 26 17.1537V14.787C25.9954 14.2897 25.8299 13.8081 25.5295 13.4178C25.2291 13.0274 24.8108 12.7504 24.3403 12.6303C23.8823 12.5017 23.4781 12.2222 23.19 11.835C22.9019 11.4477 22.7458 10.9741 22.7458 10.487C22.7458 9.99987 22.9019 9.52625 23.19 9.13899C23.4781 8.75173 23.8823 8.47229 24.3403 8.34365C24.8108 8.22354 25.2291 7.94656 25.5295 7.55621C25.8299 7.16586 25.9954 6.68425 26 6.18698V3.82032C26 2.93626 25.6576 2.08842 25.0481 1.46329C24.4386 0.838173 23.612 0.486984 22.75 0.486984H5.41667C3.98061 0.488747 2.60385 1.07463 1.5884 2.11612C0.572955 3.1576 0.00172018 4.56966 0 6.04254H0ZM23.8333 3.82032L23.7651 6.20143C22.8458 6.4624 22.0361 7.02718 21.4617 7.80818C20.8872 8.58919 20.5801 9.54277 20.5878 10.5211C20.5956 11.4993 20.9179 12.4477 21.5047 13.219C22.0915 13.9903 22.91 14.5414 23.8333 14.787V17.1537C23.8333 17.4483 23.7192 17.731 23.516 17.9393C23.3129 18.1477 23.0373 18.2648 22.75 18.2648H18.4167V16.0425C18.4167 15.7479 18.3025 15.4652 18.0994 15.2569C17.8962 15.0485 17.6207 14.9314 17.3333 14.9314C17.046 14.9314 16.7705 15.0485 16.5673 15.2569C16.3641 15.4652 16.25 15.7479 16.25 16.0425V18.2648H5.41667C4.55471 18.2648 3.72806 17.9136 3.11857 17.2885C2.50908 16.6633 2.16667 15.8155 2.16667 14.9314L2.23492 14.7725C3.14863 14.5123 3.95422 13.9525 4.52871 13.1787C5.10321 12.4049 5.41506 11.4596 5.41667 10.487C5.40849 9.50126 5.08658 8.54525 4.49991 7.76443C3.91324 6.98361 3.09394 6.42073 2.16667 6.16143V6.04254C2.16667 5.15848 2.50908 4.31064 3.11857 3.68552C3.72806 3.06039 4.55471 2.70921 5.41667 2.70921H16.25V4.93143C16.25 5.22611 16.3641 5.50873 16.5673 5.7171C16.7705 5.92548 17.046 6.04254 17.3333 6.04254C17.6207 6.04254 17.8962 5.92548 18.0994 5.7171C18.3025 5.50873 18.4167 5.22611 18.4167 4.93143V2.70921H22.75C23.0373 2.70921 23.3129 2.82627 23.516 3.03464C23.7192 3.24302 23.8333 3.52563 23.8333 3.82032Z" fill="url(#paint0_linear_242_1960)"/>
<path d="M16.25 9.37581V11.598C16.25 11.8927 16.3641 12.1753 16.5673 12.3837C16.7705 12.5921 17.046 12.7091 17.3333 12.7091C17.6207 12.7091 17.8962 12.5921 18.0994 12.3837C18.3025 12.1753 18.4167 11.8927 18.4167 11.598V9.37581C18.4167 9.08113 18.3025 8.79851 18.0994 8.59014C17.8962 8.38176 17.6207 8.2647 17.3333 8.2647C17.046 8.2647 16.7705 8.38176 16.5673 8.59014C16.3641 8.79851 16.25 9.08113 16.25 9.37581Z" fill="url(#paint1_linear_242_1960)"/>
<defs>
<linearGradient id="paint0_linear_242_1960" x1="3.34397" y1="20.487" x2="10.978" y2="-3.26622" gradientUnits="userSpaceOnUse">
<stop stop-color="#E6E6E6"/>
<stop offset="1" stop-color="#B1B1B1"/>
</linearGradient>
<linearGradient id="paint1_linear_242_1960" x1="16.5287" y1="12.7091" x2="19.4062" y2="9.35159" gradientUnits="userSpaceOnUse">
<stop stop-color="#E6E6E6"/>
<stop offset="1" stop-color="#B1B1B1"/>
</linearGradient>
</defs>
</svg>
