<svg width="15" height="15" viewBox="0 0 15 15" fill="none" xmlns="http://www.w3.org/2000/svg">
<path d="M7.5 15C3.3642 15 0 11.6358 0 7.5C0 5.5254 0.8004 3.5928 2.1966 2.1966C2.25231 2.14089 2.31844 2.0967 2.39122 2.06656C2.46401 2.03641 2.54202 2.02089 2.6208 2.02089C2.69958 2.02089 2.77759 2.03641 2.85038 2.06656C2.92316 2.0967 2.98929 2.14089 3.045 2.1966C3.10071 2.25231 3.1449 2.31844 3.17504 2.39122C3.20519 2.46401 3.22071 2.54202 3.22071 2.6208C3.22071 2.69958 3.20519 2.77759 3.17504 2.85038C3.1449 2.92316 3.10071 2.98929 3.045 3.045C1.86776 4.22938 1.20485 5.83008 1.2 7.5C1.2 10.974 4.026 13.8 7.5 13.8C10.974 13.8 13.8 10.974 13.8 7.5C13.8 4.2282 11.2938 1.5312 8.1 1.2282V4.2C8.1 4.35913 8.03679 4.51174 7.92426 4.62426C7.81174 4.73679 7.65913 4.8 7.5 4.8C7.34087 4.8 7.18826 4.73679 7.07574 4.62426C6.96321 4.51174 6.9 4.35913 6.9 4.2V0.6C6.9 0.44087 6.96321 0.288258 7.07574 0.175736C7.18826 0.0632141 7.34087 0 7.5 0C11.6358 0 15 3.3642 15 7.5C15 11.6358 11.6358 15 7.5 15Z" fill="url(#paint0_linear_164_1592)"/>
<path d="M4.07586 4.92419C3.96335 4.81169 3.90015 4.6591 3.90015 4.49999C3.90015 4.34089 3.96335 4.1883 4.07586 4.0758C4.18836 3.96329 4.34095 3.90009 4.50006 3.90009C4.65916 3.90009 4.81175 3.96329 4.92426 4.0758L8.34846 6.6516C8.46307 6.76229 8.55449 6.8947 8.61738 7.04111C8.68027 7.18751 8.71337 7.34498 8.71476 7.50431C8.71614 7.66365 8.68578 7.82166 8.62544 7.96914C8.5651 8.11662 8.476 8.2506 8.36333 8.36327C8.25066 8.47594 8.11668 8.56504 7.9692 8.62538C7.82173 8.68572 7.66371 8.71608 7.50437 8.7147C7.34504 8.71331 7.18758 8.68021 7.04117 8.61732C6.89477 8.55443 6.76235 8.46301 6.65166 8.34839L4.07586 4.92419Z" fill="url(#paint1_linear_164_1592)"/>
<defs>
<linearGradient id="paint0_linear_164_1592" x1="0" y1="7.5" x2="15" y2="7.5" gradientUnits="userSpaceOnUse">
<stop stop-color="#FCFCFB"/>
<stop offset="1" stop-color="#E6E5E5"/>
</linearGradient>
<linearGradient id="paint1_linear_164_1592" x1="3.90015" y1="6.30741" x2="8.7148" y2="6.30741" gradientUnits="userSpaceOnUse">
<stop stop-color="#FCFCFB"/>
<stop offset="1" stop-color="#E6E5E5"/>
</linearGradient>
</defs>
</svg>
