<svg width="22" height="22" viewBox="0 0 22 22" fill="none" xmlns="http://www.w3.org/2000/svg">
<path d="M0.0474728 20.6416L5.38046 8.72021C5.13914 9.97526 6.59219 12.2457 8.17345 13.8274C10.0954 15.7493 12.2524 16.8764 13.3696 16.5891C9.36658 18.3781 5.36311 20.1662 1.35923 21.9533C1.08492 22.0795 0.671041 21.9475 0.363726 21.6371C0.0533166 21.3298 -0.0786846 20.9159 0.0474728 20.6416Z" fill="#F0F1F1"/>
<path d="M0.0474047 20.6416L5.38039 8.72021C5.13942 9.97423 6.58937 12.2416 8.16892 13.8229L0.359189 21.6319C0.0522171 21.3256 -0.0780652 20.9145 0.0474047 20.6416Z" fill="white"/>
<path d="M7.90626 5.50001C8.28596 5.50001 8.59376 5.19221 8.59376 4.81251C8.59376 4.43281 8.28596 4.125 7.90626 4.125C7.52656 4.125 7.21875 4.43281 7.21875 4.81251C7.21875 5.19221 7.52656 5.50001 7.90626 5.50001Z" fill="#DF2C2C"/>
<path d="M13.4063 6.87501C13.786 6.87501 14.0938 6.56721 14.0938 6.18751C14.0938 5.80781 13.786 5.5 13.4063 5.5C13.0266 5.5 12.7188 5.80781 12.7188 6.18751C12.7188 6.56721 13.0266 6.87501 13.4063 6.87501Z" fill="#F37A10"/>
<path d="M19.9375 9.62501C20.3172 9.62501 20.625 9.31721 20.625 8.93751C20.625 8.55781 20.3172 8.25 19.9375 8.25C19.5578 8.25 19.25 8.55781 19.25 8.93751C19.25 9.31721 19.5578 9.62501 19.9375 9.62501Z" fill="#059BBF"/>
<path d="M20.2813 17.1875C20.661 17.1875 20.9688 16.8797 20.9688 16.5C20.9688 16.1203 20.661 15.8125 20.2813 15.8125C19.9016 15.8125 19.5938 16.1203 19.5938 16.5C19.5938 16.8797 19.9016 17.1875 20.2813 17.1875Z" fill="#FA5655"/>
<path d="M12.375 2.06251C12.7547 2.06251 13.0625 1.75471 13.0625 1.37501C13.0625 0.995307 12.7547 0.6875 12.375 0.6875C11.9953 0.6875 11.6875 0.995307 11.6875 1.37501C11.6875 1.75471 11.9953 2.06251 12.375 2.06251Z" fill="#12B2A0"/>
<path d="M17.1455 1.25566L15.787 1.94798L14.7087 0.869629L14.9472 2.37596L13.5884 3.06827L15.0947 3.30684L15.3333 4.81282L16.0256 3.45397L17.5316 3.69253L16.4532 2.61452L17.1455 1.25566Z" fill="#FA5655"/>
<path d="M16.8558 12.7188L16.5282 13.7266H15.4688L16.3261 14.2959L15.9985 15.277L16.8558 14.6407L17.7131 15.2567L17.3855 14.2993L18.2428 13.7266H17.1834L16.8558 12.7188Z" fill="#F37A10"/>
<path d="M14.4375 9.28132C17.8616 9.28132 18.5814 7.10433 19.1596 5.35531C19.6412 3.89986 20.0214 2.75001 21.6563 2.75001C21.7475 2.75001 21.8349 2.71379 21.8994 2.64932C21.9639 2.58486 22.0001 2.49742 22.0001 2.40625C22.0001 2.31508 21.9639 2.22765 21.8994 2.16318C21.8349 2.09872 21.7475 2.0625 21.6563 2.0625C19.5247 2.0625 19.0074 3.62692 18.5072 5.13943C17.9197 6.91595 17.3649 8.59381 14.4375 8.59381C14.3463 8.59381 14.2589 8.63003 14.1944 8.69449C14.13 8.75896 14.0938 8.84639 14.0938 8.93756C14.0938 9.02873 14.13 9.11617 14.1944 9.18063C14.2589 9.2451 14.3463 9.28132 14.4375 9.28132Z" fill="#DF2C2C"/>
<path d="M9.83985 7.14353C12.2489 5.21611 11.3933 3.926 10.5659 2.67784C10.1032 1.98036 9.62501 1.25917 9.62501 0.343753C9.62501 0.252584 9.58879 0.165149 9.52432 0.100683C9.45986 0.0362165 9.37242 0 9.28125 0C9.19008 0 9.10265 0.0362165 9.03818 0.100683C8.97372 0.165149 8.9375 0.252584 8.9375 0.343753C8.9375 1.46645 9.49816 2.31174 9.99282 3.05803C10.7972 4.27079 11.3286 5.07242 9.41016 6.60694C9.34044 6.66438 9.29613 6.74696 9.28683 6.83682C9.27752 6.92668 9.30396 7.01659 9.36043 7.0871C9.41689 7.15762 9.49885 7.20307 9.58857 7.21363C9.67828 7.22419 9.76856 7.19901 9.83985 7.14353Z" fill="#059BBF"/>
<path d="M21.6563 13.4066C21.7474 13.4066 21.8349 13.3704 21.8993 13.3059C21.9638 13.2414 22 13.154 22 13.0628C22 12.9717 21.9638 12.8842 21.8993 12.8198C21.8349 12.7553 21.7474 12.7191 21.6563 12.7191C20.6738 12.7191 19.8897 12.1962 19.1314 11.6906C17.9069 10.8742 16.6406 10.0296 14.8819 11.7885C14.8175 11.853 14.7812 11.9404 14.7812 12.0316C14.7812 12.1227 14.8175 12.2102 14.8819 12.2746C14.9464 12.3391 15.0338 12.3753 15.125 12.3753C15.2161 12.3753 15.3035 12.3391 15.368 12.2746C16.7282 10.9147 17.5323 11.451 18.7498 12.2626C19.5542 12.7988 20.4655 13.4066 21.6563 13.4066Z" fill="#12B2A0"/>
<path d="M5.57551 20.059C2.44151 21.4715 6.21489 19.7785 3.0778 21.1844C2.30762 20.3888 1.59299 19.5411 0.938965 18.6475L2.21635 15.792C3.11535 17.375 4.24779 18.8135 5.57551 20.059Z" fill="#DF2C2C"/>
<path d="M3.82649 18.1641L1.9991 19.9918C1.629 19.557 1.27537 19.1084 0.938965 18.6471L2.21635 15.7915C2.68932 16.6238 3.22773 17.4172 3.82649 18.1641Z" fill="#FA5655"/>
<path d="M8.17332 13.8271C10.4008 16.0543 12.9477 17.2193 13.8205 16.3451C14.6864 15.4792 13.5568 12.9519 11.3018 10.6938C9.0437 8.43877 6.51711 7.31298 5.65086 8.17511C4.64263 9.18231 6.32427 11.9781 8.17332 13.8271Z" fill="#E2E4E5"/>
<path d="M7.67315 14.9732C6.44457 13.3105 5.70104 11.5543 5.54394 9.98537C5.37653 9.50755 5.31225 9.07477 5.37997 8.7207L3.45117 13.0393C3.93449 14.0833 4.56046 15.1324 5.31088 16.1485C6.08105 17.1902 6.95084 18.1544 7.90793 19.0275L10.5211 17.8601C9.48507 17.0863 8.50297 16.1011 7.67315 14.9732Z" fill="#DF2C2C"/>
<path d="M11.2995 10.6915L8.16894 13.8221C6.32161 11.973 4.64375 9.18106 5.6506 8.1749C6.51686 7.31345 9.04207 8.43821 11.2995 10.6915Z" fill="#F0F1F1"/>
<path d="M5.37997 8.7207L3.45117 13.0393C3.93449 14.0833 4.56046 15.1324 5.31088 16.1485C5.38616 16.2503 5.4666 16.3472 5.5436 16.4476L7.40433 14.5869C6.33801 13.0389 5.68763 11.4312 5.54257 9.98228C5.37619 9.50549 5.31225 9.07374 5.37997 8.7207Z" fill="#FA5655"/>
</svg>
