<svg width="14" height="14" viewBox="0 0 14 14" fill="none" xmlns="http://www.w3.org/2000/svg">
<path d="M13.2002 11.5938C13.6502 12.0438 13.6502 12.7438 13.2002 13.1938C12.9752 13.4188 12.7002 13.5188 12.4002 13.5188C12.1002 13.5188 11.8252 13.4188 11.6002 13.1938L7.0252 8.61885L2.4502 13.1938C2.2252 13.4188 1.9502 13.5188 1.6502 13.5188C1.3502 13.5188 1.0752 13.4188 0.850195 13.1938C0.400195 12.7438 0.400195 12.0438 0.850195 11.5938L5.4252 7.01885L0.850195 2.44385C0.400195 1.99385 0.400195 1.29385 0.850195 0.843848C1.3002 0.393848 2.0002 0.393848 2.4502 0.843848L7.0252 5.41885L11.6002 0.843848C12.0502 0.393848 12.7502 0.393848 13.2002 0.843848C13.6502 1.29385 13.6502 1.99385 13.2002 2.44385L8.6252 7.01885L13.2002 11.5938Z" fill="#6F6F6F"/>
</svg>
