<svg width="22" height="23" viewBox="0 0 22 23" fill="none" xmlns="http://www.w3.org/2000/svg">
<path d="M21.1942 8.89262L14.2413 1.93462C13.3808 1.0761 12.2152 0.593994 11 0.593994C9.78481 0.593994 8.6192 1.0761 7.75867 1.93462L0.80576 8.89262C0.549484 9.14741 0.3463 9.45056 0.207986 9.78451C0.0696732 10.1185 -0.00101787 10.4766 1.10728e-05 10.838V19.8423C1.10728e-05 20.5721 0.289742 21.272 0.805467 21.7881C1.32119 22.3041 2.02066 22.594 2.75001 22.594H19.25C19.9793 22.594 20.6788 22.3041 21.1945 21.7881C21.7103 21.272 22 20.5721 22 19.8423V10.838C22.001 10.4766 21.9303 10.1185 21.792 9.78451C21.6537 9.45056 21.4505 9.14741 21.1942 8.89262ZM13.75 20.7596H8.25V17.1512C8.25 16.4215 8.53973 15.7216 9.05546 15.2055C9.57118 14.6895 10.2707 14.3996 11 14.3996C11.7293 14.3996 12.4288 14.6895 12.9445 15.2055C13.4603 15.7216 13.75 16.4215 13.75 17.1512V20.7596ZM20.1667 19.8423C20.1667 20.0856 20.0701 20.3189 19.8982 20.4909C19.7263 20.6629 19.4931 20.7596 19.25 20.7596H15.5833V17.1512C15.5833 15.9349 15.1004 14.7684 14.2409 13.9084C13.3814 13.0483 12.2156 12.5652 11 12.5652C9.78443 12.5652 8.61864 13.0483 7.7591 13.9084C6.89956 14.7684 6.41667 15.9349 6.41667 17.1512V20.7596H2.75001C2.50689 20.7596 2.27374 20.6629 2.10183 20.4909C1.92992 20.3189 1.83334 20.0856 1.83334 19.8423V10.838C1.83419 10.595 1.93068 10.362 2.10193 10.1896L9.05484 3.23432C9.57156 2.71969 10.2709 2.43078 11 2.43078C11.7291 2.43078 12.4284 2.71969 12.9452 3.23432L19.8981 10.1923C20.0687 10.3641 20.1651 10.5959 20.1667 10.838V19.8423Z" fill="#F5AD6C"/>
</svg>
