<svg width="22" height="24" viewBox="0 0 22 24" fill="none" xmlns="http://www.w3.org/2000/svg">
<path d="M11 20.6499C16.5228 20.6499 21 16.1728 21 10.6499C21 5.12705 16.5228 0.649902 11 0.649902C5.47715 0.649902 1 5.12705 1 10.6499C1 16.1728 5.47715 20.6499 11 20.6499Z" fill="#FF9637"/>
<path d="M11 0.649902C5.5 0.649902 1 5.1499 1 10.6499C1 16.1499 5.5 20.6499 11 20.6499C16.5 20.6499 21 16.1499 21 10.6499C21 5.1499 16.5 0.649902 11 0.649902ZM11 19.1499C5.95 19.1499 1.9 15.0499 1.9 9.9999C1.9 4.9499 5.95 0.899902 11 0.899902C16.05 0.899902 20.1 4.9499 20.1 9.9999C20.1 15.0499 16.05 19.1499 11 19.1499Z" fill="#FF7800"/>
<path d="M11 3.3999C12.6569 3.3999 14 3.06412 14 2.6499C14 2.23569 12.6569 1.8999 11 1.8999C9.34315 1.8999 8 2.23569 8 2.6499C8 3.06412 9.34315 3.3999 11 3.3999Z" fill="#FFF48C"/>
<path d="M11 20.6499C16.5228 20.6499 21 16.1728 21 10.6499C21 5.12705 16.5228 0.649902 11 0.649902C5.47715 0.649902 1 5.12705 1 10.6499C1 16.1728 5.47715 20.6499 11 20.6499Z" stroke="#45413C" stroke-width="0.5" stroke-miterlimit="10" stroke-linecap="round" stroke-linejoin="round"/>
<path d="M8.5 15.6499C9.2 15.1499 10.05 14.8999 11 14.8999C11.9 14.8999 12.8 15.1999 13.5 15.6499" stroke="#45413C" stroke-width="0.5" stroke-miterlimit="10" stroke-linecap="round"/>
<path opacity="0.15" d="M11 23.3499C15.4183 23.3499 19 23.0141 19 22.5999C19 22.1856 15.4183 21.8499 11 21.8499C6.58172 21.8499 3 22.1856 3 22.5999C3 23.0141 6.58172 23.3499 11 23.3499Z" fill="#45413C"/>
<path d="M6 11.0999C6.27614 11.0999 6.5 10.876 6.5 10.5999C6.5 10.3237 6.27614 10.0999 6 10.0999C5.72386 10.0999 5.5 10.3237 5.5 10.5999C5.5 10.876 5.72386 11.0999 6 11.0999Z" fill="#45413C" stroke="#45413C" stroke-width="0.5" stroke-miterlimit="10" stroke-linecap="round" stroke-linejoin="round"/>
<path d="M15.75 11.0999C16.0261 11.0999 16.25 10.876 16.25 10.5999C16.25 10.3237 16.0261 10.0999 15.75 10.0999C15.4739 10.0999 15.25 10.3237 15.25 10.5999C15.25 10.876 15.4739 11.0999 15.75 11.0999Z" fill="#45413C" stroke="#45413C" stroke-width="0.5" stroke-miterlimit="10" stroke-linecap="round" stroke-linejoin="round"/>
<path d="M17 13.8999C17.6904 13.8999 18.25 13.5641 18.25 13.1499C18.25 12.7357 17.6904 12.3999 17 12.3999C16.3096 12.3999 15.75 12.7357 15.75 13.1499C15.75 13.5641 16.3096 13.8999 17 13.8999Z" fill="#FFAA54"/>
<path d="M5 13.8999C5.69036 13.8999 6.25 13.5641 6.25 13.1499C6.25 12.7357 5.69036 12.3999 5 12.3999C4.30964 12.3999 3.75 12.7357 3.75 13.1499C3.75 13.5641 4.30964 13.8999 5 13.8999Z" fill="#FFAA54"/>
</svg>
