<svg width="109" height="58" viewBox="0 0 109 58" fill="none" xmlns="http://www.w3.org/2000/svg">
<mask id="mask0_239_1324" style="mask-type:alpha" maskUnits="userSpaceOnUse" x="2" y="4" width="105" height="54">
<path d="M9.07776 25.1395C10.4602 22.4208 13.1328 20.8541 16.7731 21.361V27.0749C11.7965 26.2915 9.07776 28.5955 9.07776 34.8624V45H2.9952V21.6835H9.07776V25.1395ZM29.5117 45.6451C23.0605 45.6451 17.9917 40.392 17.9917 33.3418C17.9917 26.2454 23.0605 21.0384 29.5117 21.0384C32.7834 21.0384 35.3639 22.3747 37.0228 24.4944V21.6835H43.1514V45H37.0228V42.143C35.3639 44.2627 32.7834 45.6451 29.5117 45.6451ZM30.5716 40.2077C34.258 40.2077 37.2071 37.3507 37.2071 33.2957C37.2071 29.2867 34.258 26.4758 30.5716 26.4758C26.7469 26.4758 24.0282 29.2867 24.0282 33.2957C24.0282 37.3507 26.7469 40.2077 30.5716 40.2077ZM52.2076 18.4118C50.18 18.4118 48.5672 16.8451 48.5672 14.8176C48.5672 12.8822 50.18 11.3155 52.2076 11.3155C54.2351 11.3155 55.8479 12.8822 55.8479 14.8176C55.8479 16.8451 54.2351 18.4118 52.2076 18.4118ZM49.0741 45V21.6835H55.2028V45H49.0741ZM95.1937 45.6451C87.7288 45.6451 82.5217 40.7146 82.5217 33.3418C82.5217 26.3837 87.4062 21.0384 94.7329 21.0384C102.382 21.0384 106.76 26.3376 106.76 33.0192C106.76 33.7565 106.76 34.4477 106.622 35.185H88.5121C88.9269 38.1802 91.0465 40.4842 95.2859 40.4842C98.235 40.4842 100.032 39.1478 100.954 37.3968L106.437 39.0096C105.101 42.0509 101.322 45.6451 95.1937 45.6451ZM88.5121 31.3603H100.815C100.539 28.5034 98.3272 26.1994 94.6869 26.1994C91.1387 26.1994 88.8347 28.6877 88.5121 31.3603Z" fill="#F5841F"/>
<line x1="71.8845" y1="57.7536" x2="71.8845" y2="4.76157" stroke="#F5841F" stroke-width="3.6864"/>
<path d="M72.9904 39.9312H60.2724V45H81.1005V41.1293L68.7511 26.7062H80.824V21.6835H60.6871V25.5542L72.9904 39.9312Z" fill="#F5841F"/>
</mask>
<g mask="url(#mask0_239_1324)">
<path d="M9.36929 24.6787C10.7517 22.1443 13.2861 20.7158 16.7421 21.1766V28.0886C11.7655 27.2592 9.36929 29.3789 9.36929 35.185V45H1.99649V21.4992H9.36929V24.6787ZM29.3219 45.6451C22.9629 45.6451 17.8941 40.392 17.8941 33.2496C17.8941 26.1072 22.9629 20.8541 29.3219 20.8541C32.225 20.8541 34.4829 21.9139 36.0957 23.665V21.4992H43.4685V45H36.0957V42.8342C34.4829 44.5392 32.225 45.6451 29.3219 45.6451ZM30.6583 39.1018C33.8378 39.1018 36.28 36.7517 36.28 33.2035C36.28 29.7014 33.8378 27.3974 30.6583 27.3974C27.4787 27.3974 25.1747 29.7014 25.1747 33.2035C25.1747 36.7517 27.4787 39.1018 30.6583 39.1018ZM52.6168 18.7805C50.2667 18.7805 48.3775 16.9373 48.3775 14.5872C48.3775 12.3293 50.2667 10.4861 52.6168 10.4861C54.9669 10.4861 56.8562 12.3293 56.8562 14.5872C56.8562 16.9373 54.9669 18.7805 52.6168 18.7805ZM48.8383 45V21.4992H56.2111V45H48.8383ZM93.9117 45.6451C86.2624 45.6451 81.0093 40.6224 81.0093 33.2957C81.0093 26.2454 85.9399 20.8541 93.4509 20.8541C101.238 20.8541 105.754 26.2454 105.754 33.0192C105.754 33.8486 105.708 34.6781 105.57 35.4614H88.1978C88.6586 37.6733 90.2714 39.5165 94.0499 39.5165C96.5383 39.5165 97.9667 38.5488 98.7501 37.1203L105.386 39.0557C104.141 41.9587 100.179 45.6451 93.9117 45.6451ZM88.1978 31.0378H98.5658C98.3354 28.9181 96.4461 27.0288 93.4048 27.0288C90.3635 27.0288 88.5203 29.0563 88.1978 31.0378Z" fill="#F5841F"/>
<line x1="71.8845" y1="57.7536" x2="71.8845" y2="5.52956" stroke="#F5841F" stroke-width="3.6864"/>
<path d="M71.4698 38.9635H59.8116V45H81.1927V40.392L69.9952 27.5357H80.9162V21.4992H60.2263V26.1072L71.4698 38.9635Z" fill="#F5841F"/>
<g opacity="0.5">
<g style="mix-blend-mode:color-dodge" opacity="0.5">
<path d="M33.1189 77.1814L81.5164 220.218L28.9274 220.411L-19.4701 77.3748L33.1189 77.1814Z" fill="#378787"/>
</g>
<g style="mix-blend-mode:hard-light" opacity="0.5">
<path d="M25.0207 142.352L56.9932 21.9494L36.865 155.486L4.89251 275.889L25.0207 142.352Z" fill="#368787"/>
</g>
<g style="mix-blend-mode:plus-darker" opacity="0.5">
<path d="M25.2921 148.619L63.057 18.6415L27.4819 154.002L-10.2829 283.979L25.2921 148.619Z" fill="#388787"/>
</g>
<g style="mix-blend-mode:overlay" opacity="0.02">
<rect width="224.054" height="96.7106" rx="5.9904" transform="matrix(-0.159835 0.987144 -0.773965 -0.633229 84.8569 72.1462)" fill="url(#paint0_linear_239_1324)"/>
</g>
<g style="mix-blend-mode:lighten" opacity="0.5">
<path d="M8.88849 132.177L40.9126 37.1386L10.9756 168.973L-21.0485 264.012L8.88849 132.177Z" fill="#4B8787"/>
</g>
<g style="mix-blend-mode:exclusion" opacity="0.5">
<path d="M44.9319 144.463L76.941 278.699L42.4185 150.73L10.4093 16.4933L44.9319 144.463Z" fill="#3A8787"/>
</g>
<g style="mix-blend-mode:darken" opacity="0.5">
<path d="M45.5309 144.235L100.008 288.982L34.9279 167.073L-19.549 22.3268L45.5309 144.235Z" fill="#278787"/>
</g>
<g style="mix-blend-mode:soft-light" opacity="0.5">
<path d="M45.9731 141.182L78.4316 276.735L40.3497 152.521L7.89118 16.9678L45.9731 141.182Z" fill="#2D8787"/>
</g>
<g style="mix-blend-mode:overlay" opacity="0.02">
<rect width="213.197" height="59.1133" rx="2.81126" transform="matrix(-0.088811 0.996049 -0.558367 -0.829594 74.9084 69.1006)" fill="url(#paint1_linear_239_1324)"/>
</g>
<g style="mix-blend-mode:multiply" opacity="0.5">
<path d="M22.8052 167.899L-14.6009 31.6541L28.5674 129.66L65.9735 265.906L22.8052 167.899Z" fill="#328787"/>
</g>
<g style="mix-blend-mode:hard-light" opacity="0.5">
<path d="M35.1008 157.068L3.2722 17.7417L48.2008 150.575L80.0294 289.902L35.1008 157.068Z" fill="#4A8787"/>
</g>
</g>
<g opacity="0.5">
<g style="mix-blend-mode:color-dodge" opacity="0.5">
<path d="M77.97 77.1814L126.368 220.217L73.7786 220.411L25.3811 77.3748L77.97 77.1814Z" fill="#378787"/>
</g>
<g style="mix-blend-mode:hard-light" opacity="0.5">
<path d="M69.8717 142.352L101.844 21.9495L81.7161 155.486L49.7436 275.889L69.8717 142.352Z" fill="#368787"/>
</g>
<g style="mix-blend-mode:plus-darker" opacity="0.5">
<path d="M70.1433 148.618L107.908 18.6413L72.3331 154.002L34.5683 283.979L70.1433 148.618Z" fill="#388787"/>
</g>
<g style="mix-blend-mode:overlay" opacity="0.02">
<rect width="224.054" height="96.7106" rx="5.9904" transform="matrix(-0.159835 0.987144 -0.773965 -0.633229 129.708 72.1462)" fill="url(#paint2_linear_239_1324)"/>
</g>
<g style="mix-blend-mode:lighten" opacity="0.5">
<path d="M53.7398 132.177L85.7639 37.1386L55.8269 168.973L23.8028 264.012L53.7398 132.177Z" fill="#4B8787"/>
</g>
<g style="mix-blend-mode:exclusion" opacity="0.5">
<path d="M89.7828 144.463L121.792 278.699L87.2695 150.73L55.2603 16.4934L89.7828 144.463Z" fill="#3A8787"/>
</g>
<g style="mix-blend-mode:darken" opacity="0.5">
<path d="M90.3823 144.236L144.859 288.982L79.7792 167.073L25.3024 22.3268L90.3823 144.236Z" fill="#278787"/>
</g>
<g style="mix-blend-mode:soft-light" opacity="0.5">
<path d="M90.8242 141.182L123.283 276.735L85.2008 152.521L52.7423 16.9679L90.8242 141.182Z" fill="#2D8787"/>
</g>
<g style="mix-blend-mode:overlay" opacity="0.02">
<rect width="213.197" height="59.1132" rx="2.81126" transform="matrix(-0.088811 0.996048 -0.558367 -0.829594 119.76 69.1005)" fill="url(#paint3_linear_239_1324)"/>
</g>
<g style="mix-blend-mode:multiply" opacity="0.5">
<path d="M67.6564 167.899L30.2503 31.6541L73.4186 129.66L110.825 265.905L67.6564 167.899Z" fill="#328787"/>
</g>
<g style="mix-blend-mode:hard-light" opacity="0.5">
<path d="M79.952 157.068L48.1234 17.7417L93.052 150.575L124.881 289.902L79.952 157.068Z" fill="#4A8787"/>
</g>
</g>
</g>
<defs>
<linearGradient id="paint0_linear_239_1324" x1="112.027" y1="0" x2="112.027" y2="96.7106" gradientUnits="userSpaceOnUse">
<stop stop-color="#87877C" stop-opacity="0.530383"/>
<stop offset="1" stop-color="#878755" stop-opacity="0.335188"/>
</linearGradient>
<linearGradient id="paint1_linear_239_1324" x1="106.599" y1="0" x2="106.599" y2="59.1133" gradientUnits="userSpaceOnUse">
<stop stop-color="#87877C" stop-opacity="0.530383"/>
<stop offset="1" stop-color="#878755" stop-opacity="0.335188"/>
</linearGradient>
<linearGradient id="paint2_linear_239_1324" x1="112.027" y1="0" x2="112.027" y2="96.7106" gradientUnits="userSpaceOnUse">
<stop stop-color="#87877C" stop-opacity="0.530383"/>
<stop offset="1" stop-color="#878755" stop-opacity="0.335188"/>
</linearGradient>
<linearGradient id="paint3_linear_239_1324" x1="106.599" y1="0" x2="106.599" y2="59.1132" gradientUnits="userSpaceOnUse">
<stop stop-color="#87877C" stop-opacity="0.530383"/>
<stop offset="1" stop-color="#878755" stop-opacity="0.335188"/>
</linearGradient>
</defs>
</svg>
