<svg width="32" height="32" viewBox="0 0 32 32" fill="none" xmlns="http://www.w3.org/2000/svg">
<g clip-path="url(#clip0_583_421)">
<path d="M15.9318 31.4576C24.5355 31.4576 31.4572 24.5359 31.4572 15.9322C31.4572 7.32844 24.5355 0.406738 15.9318 0.406738C7.32807 0.406738 0.406372 7.32844 0.406372 15.9322C0.406372 24.5359 7.32807 31.4576 15.9318 31.4576Z" fill="#2775CA"/>
<path d="M20.2014 18.3918C20.2014 16.1277 18.8429 15.3515 16.126 15.0281C14.1853 14.7693 13.7972 14.2518 13.7972 13.3461C13.7972 12.4403 14.4441 11.8583 15.7378 11.8583C16.9022 11.8583 17.5492 12.2464 17.8726 13.2167C17.9373 13.4108 18.1314 13.5401 18.3255 13.5401H19.3604C19.6192 13.5401 19.8133 13.3461 19.8133 13.0874V13.0227C19.5544 11.5994 18.39 10.4998 16.9022 10.3705V8.81791C16.9022 8.5591 16.7082 8.36503 16.3848 8.30029H15.4144C15.1556 8.30029 14.9616 8.49436 14.8968 8.81791V10.3057C12.9561 10.5645 11.7271 11.8583 11.7271 13.4755C11.7271 15.6103 13.0209 16.4511 15.7378 16.7747C17.5492 17.0981 18.1314 17.4862 18.1314 18.5213C18.1314 19.5564 17.2256 20.2679 15.9966 20.2679C14.3146 20.2679 13.7324 19.5562 13.5383 18.5859C13.4738 18.3272 13.2797 18.1977 13.0856 18.1977H11.9858C11.7271 18.1977 11.5331 18.3918 11.5331 18.6506V18.7154C11.7917 20.3325 12.8268 21.4969 14.9616 21.8204V23.373C14.9616 23.6316 15.1556 23.8257 15.479 23.8905H16.4494C16.7082 23.8905 16.9022 23.6964 16.967 23.373V21.8204C18.9077 21.4969 20.2014 20.1384 20.2014 18.3918Z" fill="white"/>
<path fill-rule="evenodd" clip-rule="evenodd" d="M6.87507 12.7628C4.99897 17.744 7.5866 23.372 12.6324 25.1832C12.8264 25.3127 13.0205 25.5713 13.0205 25.7654V26.6711C13.0205 26.8005 13.0205 26.8652 12.9558 26.9298C12.8912 27.1886 12.6324 27.318 12.3736 27.1886C8.751 26.0242 5.96931 23.2425 4.80491 19.62C2.86423 13.4745 6.22812 6.94081 12.3736 5.00013C12.4383 4.93555 12.5676 4.93555 12.6324 4.93555C12.8912 5.00013 13.0205 5.1942 13.0205 5.45301V6.35861C13.0205 6.68216 12.8912 6.87622 12.6324 7.00555C9.98015 7.97589 7.84541 10.0459 6.87507 12.7628ZM18.9073 5.25894C18.9719 5.00013 19.2307 4.87081 19.4895 5.00013C23.0473 6.16454 25.8937 8.94623 27.0581 12.6335C28.9987 18.7789 25.6349 25.3127 19.4895 27.2533C19.4247 27.318 19.2954 27.318 19.2307 27.318C18.9719 27.2533 18.8425 27.0592 18.8425 26.8005V25.8949C18.8425 25.5713 18.9719 25.3773 19.2307 25.2479C21.8829 24.2776 24.0176 22.2076 24.988 19.4906C26.864 14.5095 24.2764 8.88149 19.2307 7.07029C19.0366 6.94081 18.8425 6.68216 18.8425 6.42335V5.51775C18.8425 5.38827 18.8425 5.32368 18.9073 5.25894Z" fill="white"/>
</g>
<defs>
<clipPath id="clip0_583_421">
<rect width="31.0508" height="31.0508" fill="white" transform="translate(0.406738 0.406738)"/>
</clipPath>
</defs>
</svg>
